<?xml version="1.0" encoding="utf-8"?>
<!-- Generator: Adobe Illustrator 25.1.0, SVG Export Plug-In . SVG Version: 6.00 Build 0)  -->
<svg version="1.1" id="Calque_1" xmlns="http://www.w3.org/2000/svg" xmlns:xlink="http://www.w3.org/1999/xlink" x="0px" y="0px"
	 viewBox="0 0 329.5 302.1" style="enable-background:new 0 0 329.5 302.1;" xml:space="preserve">
<style type="text/css">
	.st0{fill:#11633D;}
	.st1{enable-background:new    ;}
	.st2{fill:#FDC731;}
	.st3{fill:#E52533;}
	.st4{fill:#FBCB2C;}
	.st5{fill:#E62733;}
</style>
<g id="Calque_2_1_">
	<g id="Calque_1-2">
		<path class="st0" d="M191.3,171.7l1.5,0.6l0,0l4.6,1.5l0,0l0.1-0.4l0.6-1.8L191.3,171.7z M187.2,172.3l-0.1,0.2l3.8,1.6l0.1-0.2
			L187.2,172.3z M185.1,171.7h0.6c0.1,0,0.3,0,0.4,0.1l0,0l1.1,0.4l0.2-0.6L185.1,171.7z M213.3,184.2c-0.3-0.1-0.5-0.2-0.6-0.4
			l-1.2-1.8l-0.8-1.3l-17.6-5.8l-0.6,1.5l-3.1,7.6l2,1l10.9,4.8l0.9,0.1l0.2,0.1l3,1.1h14.1v-4.6L213.3,184.2z M199.5,191.2l-9.1-4
			l-2-1l-0.3,0.7c-0.3,0.6-0.9,0.8-1.5,0.6l-5.4-2.3l0,0l-0.1-0.1l-10.7-4.7v5.4l3.9,2l7,3.3h2.8l0.5-1.1c0.3-0.6,1-0.8,1.5-0.6
			l2.1,1l-0.3,0.6L199.5,191.2z M186.4,174.5l-3.4,9l3.4,1.4l0.4-0.8l3.3-8.1L186.4,174.5z M186.4,174.5l-3.4,9l3.4,1.4l0.4-0.8
			l3.3-8.1L186.4,174.5z M186.4,174.5l-3.4,9l3.4,1.4l0.4-0.8l3.3-8.1L186.4,174.5z M186.4,174.5l-3.4,9l3.4,1.4l0.4-0.8l3.3-8.1
			L186.4,174.5z M220.5,176v-4.3h-19.9l-0.9,2.9l12.2,4c0.3,0.1,0.5,0.3,0.6,0.5l1,1.7l0.9,1.4l1.4,0.4l4.7,1.6v-5.6l-5.8-2l0.8-2.2
			L220.5,176z M186.4,174.4l-3.4,9l3.4,1.4l0.4-0.8l3.3-8.1L186.4,174.4z M186.4,174.4l-3.4,9l3.4,1.4l0.4-0.8l3.3-8.1L186.4,174.4z
			 M186.4,174.4l-3.4,9l3.4,1.4l0.4-0.8l3.3-8.1L186.4,174.4z M183.1,173.7l-1.9,0.2h-0.3l-1.7-0.2c-0.1,0-0.2,0-0.4-0.1l-4.1-1.9
			h-2.6l-0.1,0.2l-1.8,3.7v2.1l10.6,4.7l3.2-8.6L183.1,173.7z M186.4,174.4l-3.4,9l3.4,1.4l0.4-0.8l3.3-8.1L186.4,174.4z M173,189.9
			l-2.8-1.5v2.7h5.4L173,189.9z M226.9,140.4v-15.8h-48.3l2.1,2.2c0.3,0.3,0.4,0.6,0.3,1l-0.1,0.8v0.1l-0.5,1.5l-4,13.8h11
			c0.1-0.3,0.3-0.5,0.6-0.6l2.3-1l0.7,1.6h12.4l0.2-0.7l1.8-4.7l2.2,0.8l-1.7,4.6h21v-1.2l-9.8-3.4l0.8-2.2L226.9,140.4z
			 M157.9,182.5c-0.1,0-0.1-0.1-0.2-0.1l-8.3-6.4l-1.6,1.2v35.6l9.1-14.6l2-4.4l4.1-8.6L157.9,182.5z M147.8,151.9v19.6l1.6,1.4
			l0.6-0.7l2.1-5.1l3.5-13.1L147.8,151.9z M147.8,151.9v19.6l1.6,1.4l0.6-0.7l2.1-5.1l3.5-13.1L147.8,151.9z M147.8,151.9v19.6
			l1.6,1.4l0.6-0.7l2.1-5.1l3.5-13.1L147.8,151.9z M168.8,161c0-0.1,0-0.3,0-0.4l0.3-2.2l-0.6-0.2l-2.4-0.9l-8.4-2.6l-3.4,13.2
			c0,0.1,0,0.1-0.1,0.2l-2.2,5.3c0,0.1-0.1,0.2-0.2,0.3l-0.7,0.8l7.9,6.1l5,2.6l6.8-14L168.8,161z M171.5,157.9l-0.4,2.7l0.8,2.9
			l0.1,0.5v-7.5L171.5,157.9z M171.5,170.1l0.5,0.3v-1.1L171.5,170.1z M199.4,191.2l-9.1-4l-2-1l-0.3,0.7c-0.3,0.6-0.9,0.8-1.5,0.6
			l-5.4-2.3l0,0l-0.1-0.1l-10.7-4.7l-1.2-0.5l-0.6-0.3l-2.1,4.3l0.3,0.1l0.2,0.1l3.4,1.8l3.9,2l7,3.3h2.8l0.5-1.1
			c0.3-0.6,1-0.8,1.5-0.6l2.1,1l-0.3,0.6L199.4,191.2z M183,173.7l-1.9,0.2h-0.3l-1.7-0.2c-0.1,0-0.2,0-0.4-0.1l-4.1-1.9H172
			l-0.1,0.2l-1.8,3.7l-0.8,1.8l0.6,0.3l0.2,0.1l10.6,4.7l3.2-8.6L183,173.7z M171.4,157.9l-0.4,2.7l0.8,2.9h0.1v-6.9L171.4,157.9z
			 M171.4,170.1l0.5,0.3v-1.1L171.4,170.1z M199.4,191.2l-9.1-4l-2-1l-0.3,0.7c-0.3,0.6-0.9,0.8-1.5,0.6l-5.4-2.3l0,0l-0.1-0.1
			l-10.7-4.7l-1.1-0.5l-0.6-0.3l-2.1,4.3l0.3,0.1l0.2,0.1l3.4,1.8l3.9,2l7,3.3h2.8l0.5-1.1c0.3-0.6,1-0.8,1.5-0.6l2.1,1l-0.3,0.6
			L199.4,191.2z M183,173.7l-1.9,0.2h-0.3l-1.7-0.2c-0.1,0-0.2,0-0.4-0.1l-4.1-1.9H172l-0.1,0.2l-1.8,3.7l-0.8,1.8l0.6,0.3l0.2,0.1
			l10.6,4.7l3.2-8.6L183,173.7z M171.4,157.9l-0.4,2.7l0.8,2.9h0.1v-6.9L171.4,157.9z M171.4,170.1l0.5,0.3v-1.1L171.4,170.1z
			 M199.3,191.2l-9.1-4l-2-1l-0.3,0.7c-0.3,0.6-0.9,0.8-1.5,0.6l-5.4-2.3l0,0l-0.1-0.1l-10.7-4.7l-1.1-0.5l-0.6-0.3l-2.1,4.3
			l0.3,0.1l0.2,0.1l3.4,1.8l3.9,2l7,3.3h2.8l0.5-1.1c0.3-0.6,1-0.8,1.5-0.6l2.1,1l-0.3,0.6L199.3,191.2z M183,173.7l-1.9,0.2h-0.3
			l-1.7-0.2c-0.1,0-0.2,0-0.4-0.1l-4.1-1.9H172l-0.1,0.2l-1.8,3.7l-0.8,1.8l0.6,0.3l0.2,0.1l10.6,4.7l3.2-8.6L183,173.7z
			 M171.4,157.9l-0.4,2.7l0.8,2.9h0.1v-6.9L171.4,157.9z M171.4,170.1l0.5,0.3v-1.1L171.4,170.1z M199.3,191.2l-9.1-4l-2-1l-0.3,0.7
			c-0.3,0.6-0.9,0.8-1.5,0.6l-5.4-2.3l0,0l-0.1-0.1l-10.7-4.7l-1.1-0.5l-0.6-0.3l-2.1,4.3l0.3,0.1l0.2,0.1l3.4,1.8l3.9,2l7,3.3h2.8
			l0.5-1.1c0.3-0.6,1-0.8,1.5-0.6l2.1,1l-0.3,0.6L199.3,191.2z M183,173.7l-1.9,0.2h-0.3l-1.7-0.2c-0.1,0-0.2,0-0.4-0.1l-4.1-1.9
			H172l-0.1,0.2l-1.8,3.7l-0.8,1.8l0.6,0.3l0.2,0.1l10.6,4.7l3.2-8.6L183,173.7z M171.4,157.9l-0.4,2.7l0.8,2.9h0.1v-6.9
			L171.4,157.9z M171.4,170.1l0.5,0.3v-1.1L171.4,170.1z M199.3,191.2l-9.1-4l-2-1l-0.3,0.7c-0.3,0.6-0.9,0.8-1.5,0.6l-5.4-2.3l0,0
			l-0.1-0.1l-10.7-4.7l-1.1-0.5l-0.6-0.3l-2.1,4.3l0.3,0.1l0.2,0.1l3.4,1.8l3.9,2l7,3.3h2.8l0.5-1.1c0.3-0.6,1-0.8,1.5-0.6l2.1,1
			l-0.3,0.6L199.3,191.2z M182.9,173.7l-1.9,0.2h-0.3l-1.7-0.2c-0.1,0-0.2,0-0.4-0.1l-4.1-1.9H172l-0.1,0.2l-1.8,3.7l-0.8,1.8
			l0.6,0.3l0.2,0.1l10.6,4.7l3.2-8.6L182.9,173.7z M171.4,157.9l-0.4,2.7l0.8,2.9h0.1v-6.9L171.4,157.9z M171.4,170.1l0.5,0.3v-1.1
			L171.4,170.1z M199.3,191.2l-9.1-4l-2-1l-0.3,0.7c-0.3,0.6-0.9,0.8-1.5,0.6l-5.4-2.3l0,0l-0.1-0.1l-10.7-4.7l-1.1-0.5l-0.6-0.3
			l-2.1,4.3l0.3,0.1l0.2,0.1l3.4,1.8l3.9,2l7,3.3h2.8l0.5-1.1c0.3-0.6,1-0.8,1.5-0.6l2.1,1l-0.3,0.6L199.3,191.2z M182.9,173.7
			l-1.9,0.2h-0.3l-1.7-0.2c-0.1,0-0.2,0-0.4-0.1l-4.1-1.9h-2.6l-0.1,0.2l-1.8,3.7l-0.8,1.8l0.6,0.3l0.2,0.1l10.6,4.7l3.2-8.6
			L182.9,173.7z M171.3,157.9l-0.4,2.7l0.8,2.9h0.1v-6.9L171.3,157.9z M171.3,170.1l0.5,0.3v-1.1L171.3,170.1z M199.3,191.2l-9.1-4
			l-2-1l-0.3,0.7c-0.3,0.6-0.9,0.8-1.5,0.6l-5.4-2.3l0,0l-0.1-0.1l-10.7-4.7l-1-0.5l-0.6-0.3l-2.1,4.3l0.3,0.1l0.2,0.1l3.4,1.8
			l3.9,2l7,3.3h2.8l0.5-1.1c0.3-0.6,1-0.8,1.5-0.6l2.1,1l-0.3,0.6L199.3,191.2z M182.9,173.7l-1.9,0.2h-0.3l-1.7-0.2
			c-0.1,0-0.2,0-0.4-0.1l-4.1-1.9h-2.6l-0.1,0.2l-1.8,3.7l-0.8,1.8l0.6,0.3l0.2,0.1l10.6,4.7l3.2-8.6L182.9,173.7z M171.3,157.9
			l-0.4,2.7l0.8,2.9h0.1v-6.9L171.3,157.9z M171.3,170.1l0.5,0.3v-1.1L171.3,170.1z M182.9,173.7l-1.9,0.2h-0.3l-1.7-0.2
			c-0.1,0-0.2,0-0.4-0.1l-4.1-1.9h-2.6l-0.1,0.2l-1.8,3.7l-0.8,1.8l0.6,0.3l0.2,0.1l10.6,4.7l3.2-8.6L182.9,173.7z M169,179.8
			l-0.6-0.3l-2.1,4.3l0.3,0.1l0.2,0.1l3.4,1.8v-5.4L169,179.8z M171.5,157.9l-0.4,2.7l0.8,2.9h0.1v-6.9L171.5,157.9z M171.5,170.1
			l0.5,0.3v-1.1L171.5,170.1z M175.5,124.8c-0.1-0.1-0.1-0.1-0.2-0.2h-27.6v24.9l9.4,2.6l9.7,3l2.5,0.9l0.4,0.1l2.3-6.2V144h2
			l4.5-16L175.5,124.8z M183.1,173.7l-1.9,0.2H181l-1.7-0.2c-0.1,0-0.2,0-0.4-0.1l-4.1-1.9h-2.6l-0.1,0.2l-1.8,3.7l-0.8,1.8l0.6,0.3
			l0.2,0.1l10.6,4.7l3.2-8.6L183.1,173.7z M169,179.8l-0.6-0.3l-2.1,4.3l0.3,0.1l0.2,0.1l3.4,1.8v-5.4L169,179.8z M171.6,170.1
			l0.5,0.3v-1.1L171.6,170.1z M171.6,157.9l-0.4,2.7l0.8,2.9h0.1v-6.9L171.6,157.9z M199.5,191.2l-9.1-4l-2-1l-0.3,0.7
			c-0.3,0.6-0.9,0.8-1.5,0.6l-5.4-2.3l0,0l-0.1-0.1l-10.7-4.7l-1.3-0.5l-0.6-0.3l-2.1,4.3l0.3,0.1l0.2,0.1l3.4,1.8l3.9,2l7,3.3h2.8
			l0.5-1.1c0.3-0.6,1-0.8,1.5-0.6l2.1,1l-0.3,0.6L199.5,191.2z M183.1,173.7l-1.9,0.2H181l-1.7-0.2c-0.1,0-0.2,0-0.4-0.1l-4.1-1.9
			h-2.6l-0.1,0.2l-1.8,3.7l-0.8,1.8l0.6,0.3l0.2,0.1l10.6,4.7l3.2-8.6L183.1,173.7z M171.6,170.1l0.5,0.3v-1.1L171.6,170.1z
			 M171.6,157.9l-0.4,2.7l0.8,2.9h0.1v-6.9L171.6,157.9z M199.5,191.2l-9.1-4l-2-1l-0.3,0.7c-0.3,0.6-0.9,0.8-1.5,0.6l-5.4-2.3l0,0
			l-0.1-0.1l-10.7-4.7l-1.3-0.5l-0.6-0.3l-2.1,4.3l0.3,0.1l0.2,0.1l3.4,1.8l3.9,2l7,3.3h2.8l0.5-1.1c0.3-0.6,1-0.8,1.5-0.6l2.1,1
			l-0.3,0.6L199.5,191.2z M183.2,173.7l-1.9,0.2H181l-1.7-0.2c-0.1,0-0.2,0-0.4-0.1l-4.1-1.9h-2.6l-0.1,0.2l-1.8,3.7l-0.8,1.8
			l0.6,0.3l0.2,0.1l10.6,4.7l3.2-8.6L183.2,173.7z M171.6,170.1l0.5,0.3v-1.1L171.6,170.1z M171.6,157.9l-0.4,2.7l0.8,2.9h0.1v-6.9
			L171.6,157.9z M199.5,191.2l-9.1-4l-2-1l-0.3,0.7c-0.3,0.6-0.9,0.8-1.5,0.6l-5.4-2.3l0,0l-0.1-0.1l-10.7-4.7l-1.3-0.5l-0.6-0.3
			l-2.1,4.3l0.3,0.1l0.2,0.1l3.4,1.8l3.9,2l7,3.3h2.8l0.5-1.1c0.3-0.6,1-0.8,1.5-0.6l2.1,1l-0.3,0.6L199.5,191.2z M183.2,173.7
			l-1.9,0.2H181l-1.7-0.2c-0.1,0-0.2,0-0.4-0.1l-4.1-1.9h-2.6l-0.1,0.2l-1.8,3.7l-0.8,1.8l0.6,0.3l0.2,0.1l10.6,4.7l3.2-8.6
			L183.2,173.7z M171.6,170.1l0.5,0.3v-1.1L171.6,170.1z M171.6,157.9l-0.4,2.7l0.8,2.9h0.1v-6.9L171.6,157.9z M199.6,191.2l-9.1-4
			l-2-1l-0.3,0.7c-0.3,0.6-0.9,0.8-1.5,0.6l-5.4-2.3l0,0l-0.1-0.1l-10.7-4.7l-1.3-0.5l-0.6-0.3l-2.1,4.3l0.3,0.1l0.2,0.1l3.4,1.8
			l3.9,2l7,3.3h2.8l0.5-1.1c0.3-0.6,1-0.8,1.5-0.6l2.1,1l-0.3,0.6L199.6,191.2z M183.2,173.7l-1.9,0.2H181l-1.7-0.2
			c-0.1,0-0.2,0-0.4-0.1l-4.1-1.9h-2.6l-0.1,0.2l-1.8,3.7l-0.8,1.8l0.6,0.3l0.2,0.1l10.6,4.7l3.2-8.6L183.2,173.7z M171.6,170.1
			l0.5,0.3v-1.1L171.6,170.1z M171.6,157.9l-0.4,2.7l0.8,2.9h0.1v-6.9L171.6,157.9z M199.6,191.2l-9.1-4l-2-1l-0.3,0.7
			c-0.3,0.6-0.9,0.8-1.5,0.6l-5.4-2.3l0,0l-0.1-0.1l-10.7-4.7l-1.4-0.5l-0.6-0.3l-2.1,4.3l0.3,0.1l0.2,0.1l3.4,1.8l3.9,2l7,3.3h2.8
			l0.5-1.1c0.3-0.6,1-0.8,1.5-0.6l2.1,1l-0.3,0.6L199.6,191.2z M183.2,173.7l-1.9,0.2H181l-1.7-0.2c-0.1,0-0.2,0-0.4-0.1l-4.1-1.9
			h-2.6l-0.1,0.2l-1.8,3.7l-0.8,1.8l0.6,0.3l0.2,0.1l10.6,4.7l3.2-8.6L183.2,173.7z M171.7,170.1l0.5,0.3v-1.1L171.7,170.1z
			 M171.7,157.9l-0.4,2.7l0.8,2.9h0.1v-6.9L171.7,157.9z M199.6,191.2l-9.1-4l-2-1l-0.3,0.7c-0.3,0.6-0.9,0.8-1.5,0.6l-5.4-2.3l0,0
			l-0.1-0.1l-10.7-4.7l-1.4-0.5l-0.6-0.3l-2.1,4.3l0.3,0.1l0.2,0.1l3.4,1.8l3.9,2l7,3.3h2.8l0.5-1.1c0.3-0.6,1-0.8,1.5-0.6l2.1,1
			l-0.3,0.6L199.6,191.2z M183.2,173.7l-1.9,0.2H181l-1.7-0.2c-0.1,0-0.2,0-0.4-0.1l-4.1-1.9h-2.6l-0.1,0.2l-1.8,3.7l-0.8,1.8
			l0.6,0.3l0.2,0.1l10.6,4.7l3.2-8.6L183.2,173.7z M171.7,170.1l0.5,0.3v-1.1L171.7,170.1z M171.7,157.9l-0.4,2.7l0.8,2.9h0.1v-6.9
			L171.7,157.9z M199.6,191.2l-9.1-4l-2-1l-0.3,0.7c-0.3,0.6-0.9,0.8-1.5,0.6l-5.4-2.3l0,0l-0.1-0.1l-10.7-4.7l-1.4-0.5l-0.6-0.3
			l-2.1,4.3l0.3,0.1l0.2,0.1l3.4,1.8l3.9,2l7,3.3h2.8l0.5-1.1c0.3-0.6,1-0.8,1.5-0.6l2.1,1l-0.3,0.6L199.6,191.2z M183.3,173.7
			l-1.9,0.2h-0.3l-1.7-0.2c-0.1,0-0.2,0-0.4-0.1l-4.1-1.9h-2.6l-0.1,0.2l-1.8,3.7l-0.8,1.8l0.6,0.3l0.2,0.1l10.6,4.7l3.2-8.6
			L183.3,173.7z M171.7,170.1l0.5,0.3v-1.1L171.7,170.1z M171.7,157.9l-0.4,2.7l0.8,2.9h0.1v-6.9L171.7,157.9z M186.5,174.4l-3.4,9
			l3.4,1.4l0.4-0.8l3.3-8.1L186.5,174.4z M183.3,173.7l-1.9,0.2h-0.3l-1.7-0.2c-0.1,0-0.2,0-0.4-0.1l-4.1-1.9h-2.6l-0.1,0.2
			l-1.8,3.7l-0.8,1.8l0.6,0.3l0.2,0.1l10.6,4.7l3.2-8.6L183.3,173.7z M197.6,173.9L197.6,173.9l0.1-0.4L197.6,173.9z M220.5,176
			v-4.3h-19.9l-0.9,2.9l12.2,4c0.3,0.1,0.5,0.3,0.6,0.5l1,1.7l0.9,1.4l1.4,0.4l4.7,1.6v-5.6l-5.8-2l0.8-2.2L220.5,176z M213.3,184.2
			c-0.3-0.1-0.5-0.2-0.6-0.4l-1.2-1.7l-0.8-1.3l-17.6-5.8l-0.6,1.5l-3.1,7.6l2,1l10.9,4.8l0.9,0.1l0.2,0.1l3,1.1h14.1v-4.6
			L213.3,184.2z M199.5,191.2l-9.1-4l-2-1l-0.3,0.7c-0.3,0.6-0.9,0.8-1.5,0.6l-5.4-2.3l0,0l-0.1-0.1l-10.7-4.7l-1.2-0.6l-0.6-0.3
			l-2.1,4.3l0.3,0.1l0.2,0.1l3.4,1.8l3.9,2l7,3.3h2.8l0.5-1.1c0.3-0.6,1-0.8,1.5-0.6l2.1,1l-0.3,0.6L199.5,191.2z M173,189.9
			l-2.8-1.5l-4.4-2.3l-0.6-0.2l-3.7,7.7l0.3,0.2l10.2,4.8v-7.5h3.6L173,189.9z M147.7,151.9v19.6l1.6,1.4l0.6-0.7l2.1-5.1l3.5-13.2
			L147.7,151.9z M213.2,184.3c-0.3-0.1-0.5-0.2-0.6-0.4l-1.2-1.8l-0.8-1.3L193,175l-0.6,1.5l-3.1,7.6l2,1l10.9,4.8l0.9,0.1l0.2,0.1
			l3,1.1h14.1v-4.6L213.2,184.3z M220.4,176.1v-4.3h-19.9l-0.9,2.9l12.2,4c0.3,0.1,0.5,0.3,0.6,0.5l1,1.7l0.9,1.4l1.4,0.4l4.7,1.6
			v-5.6l-5.8-2l0.8-2.2L220.4,176.1z M213.2,184.3c-0.3-0.1-0.5-0.2-0.6-0.4l-1.2-1.8l-0.8-1.3L193,175l-0.6,1.5l-3.1,7.6l2,1
			l10.9,4.8l0.9,0.1l0.2,0.1l3,1.1h14.1v-4.6L213.2,184.3z M220.4,176.1v-4.3h-19.9l-0.9,2.9l12.2,4c0.3,0.1,0.5,0.3,0.6,0.5l1,1.7
			l0.9,1.4l1.4,0.4l4.7,1.6v-5.6l-5.8-2l0.8-2.2L220.4,176.1z M213.2,184.3c-0.3-0.1-0.5-0.2-0.6-0.4l-1.2-1.8l-0.8-1.3L193,175
			l-0.6,1.5l-3.1,7.6l2,1l10.9,4.8l0.9,0.1l0.2,0.1l3,1.1h14.1v-4.6L213.2,184.3z M220.4,176.1v-4.3h-19.9l-0.9,2.9l12.2,4
			c0.3,0.1,0.5,0.3,0.6,0.5l1,1.7l0.9,1.4l1.4,0.4l4.7,1.6v-5.6l-5.8-2l0.8-2.2L220.4,176.1z M213.2,184.3c-0.3-0.1-0.5-0.2-0.6-0.4
			l-1.2-1.8l-0.8-1.3L193,175l-0.6,1.5l-3.1,7.6l2,1l10.9,4.8l0.9,0.1l0.2,0.1l3,1.1h14.1v-4.6L213.2,184.3z M220.4,176.1v-4.3
			h-19.9l-0.9,2.9l12.2,4c0.3,0.1,0.5,0.3,0.6,0.5l1,1.7l0.9,1.4l1.4,0.4l4.7,1.6v-5.6l-5.8-2l0.8-2.2L220.4,176.1z M213.2,184.3
			c-0.3-0.1-0.5-0.2-0.6-0.4l-1.2-1.8l-0.8-1.3L193,175l-0.6,1.5l-3.1,7.6l2,1l10.9,4.8l0.9,0.1l0.2,0.1l3,1.1h14.1v-4.6
			L213.2,184.3z M213.2,184.3c-0.3-0.1-0.5-0.2-0.6-0.4l-1.2-1.8l-0.8-1.3L193,175l-0.6,1.5l-3.1,7.6l2,1l10.9,4.8l0.9,0.1l0.2,0.1
			l3,1.1h14.1v-4.6L213.2,184.3z M213.2,184.3c-0.3-0.1-0.5-0.2-0.6-0.4l-1.2-1.8l-0.8-1.3L193,175l-0.6,1.5l-3.1,7.6l2,1l10.9,4.8
			l0.9,0.1l0.2,0.1l3,1.1h14.1v-4.6L213.2,184.3z M213.2,184.3c-0.3-0.1-0.5-0.2-0.6-0.4l-1.2-1.8l-0.8-1.3L193,175l-0.6,1.5
			l-3.1,7.6l2,1l10.9,4.8l0.9,0.1l0.2,0.1l3,1.1h14.1v-4.6L213.2,184.3z M213.2,184.3c-0.3-0.1-0.5-0.2-0.6-0.4l-1.2-1.8l-0.8-1.3
			L193,175l-0.6,1.5l-3.1,7.6l2,1l10.9,4.8l0.9,0.1l0.2,0.1l3,1.1h14.1v-4.6L213.2,184.3z M213.2,184.3c-0.3-0.1-0.5-0.2-0.6-0.4
			l-1.2-1.8l-0.8-1.3L193,175l-0.6,1.5l-3.1,7.6l2,1l10.9,4.8l0.9,0.1l0.2,0.1l3,1.1h14.1v-4.6L213.2,184.3z M213.2,184.3
			c-0.3-0.1-0.5-0.2-0.6-0.4l-1.2-1.8l-0.8-1.3L193,175l-0.6,1.5l-3.1,7.6l2,1l10.9,4.8l0.9,0.1l0.2,0.1l3,1.1h14.1v-4.6
			L213.2,184.3z M160.5,195.8l-1.5,3.4l0,0l0.4,0.2l12.6,6v-4.2L160.5,195.8z M213.2,184.3c-0.3-0.1-0.5-0.2-0.6-0.4l-1.2-1.8
			l-0.8-1.3L193,175l-0.6,1.5l-3.1,7.6l2,1l10.9,4.8l0.9,0.1l0.2,0.1l3,1.1h14.1v-4.6L213.2,184.3z M213.2,184.3
			c-0.3-0.1-0.5-0.2-0.6-0.4l-1.2-1.8l-0.8-1.3L193,175l-0.6,1.5l-3.1,7.6l2,1l10.9,4.8l0.9,0.1l0.2,0.1l3,1.1h14.1v-4.6
			L213.2,184.3z M213.2,184.3c-0.3-0.1-0.5-0.2-0.6-0.4l-1.2-1.8l-0.8-1.3L193,175l-0.6,1.5l-3.1,7.6l2,1l10.9,4.8l0.9,0.1l0.2,0.1
			l3,1.1h14.1v-4.6L213.2,184.3z M213.2,184.3c-0.3-0.1-0.5-0.2-0.6-0.4l-1.2-1.8l-0.8-1.3L193,175l-0.6,1.5l-3.1,7.6l2,1l10.9,4.8
			l0.9,0.1l0.2,0.1l3,1.1h14.1v-4.6L213.2,184.3z M213.2,184.3c-0.3-0.1-0.5-0.2-0.6-0.4l-1.2-1.8l-0.8-1.3L193,175l-0.6,1.5
			l-3.1,7.6l2,1l10.9,4.8l0.9,0.1l0.2,0.1l3,1.1h14.1v-4.6L213.2,184.3z M213.2,184.3c-0.3-0.1-0.5-0.2-0.6-0.4l-1.2-1.8l-0.8-1.3
			L193,175l-0.6,1.5l-3.1,7.6l2,1l10.9,4.8l0.9,0.1l0.2,0.1l3,1.1h14.1v-4.6L213.2,184.3z M213.2,184.3c-0.3-0.1-0.5-0.2-0.6-0.4
			l-1.2-1.8l-0.8-1.3L193,175l-0.6,1.5l-3.1,7.6l2,1l10.9,4.8l0.9,0.1l0.2,0.1l3,1.1h14.1v-4.6L213.2,184.3z M220.4,176.1v-4.3
			h-19.9l-0.9,2.9l12.2,4c0.3,0.1,0.5,0.3,0.6,0.5l1,1.7l0.9,1.4l1.4,0.4l4.7,1.6v-5.6l-5.8-2l0.8-2.2L220.4,176.1z M213.2,184.3
			c-0.3-0.1-0.5-0.2-0.6-0.4l-1.2-1.8l-0.8-1.3L193,175l-0.6,1.5l-3.1,7.6l2,1l10.9,4.8l0.9,0.1l0.2,0.1l3,1.1h14.1v-4.6
			L213.2,184.3z M220.4,176.1v-4.3h-19.9l-0.9,2.9l12.2,4c0.3,0.1,0.5,0.3,0.6,0.5l1,1.7l0.9,1.4l1.4,0.4l4.7,1.6v-5.6l-5.8-2
			l0.8-2.2L220.4,176.1z M213.2,184.3c-0.3-0.1-0.5-0.2-0.6-0.4l-1.2-1.8l-0.8-1.3L193,175l-0.6,1.5l-3.1,7.6l2,1l10.9,4.8l0.9,0.1
			l0.2,0.1l3,1.1h14.1v-4.6L213.2,184.3z M220.4,176.1v-4.3h-19.9l-0.9,2.9l12.2,4c0.3,0.1,0.5,0.3,0.6,0.5l1,1.7l0.9,1.4l1.4,0.4
			l4.7,1.6v-5.6l-5.8-2l0.8-2.2L220.4,176.1z M213.2,184.3c-0.3-0.1-0.5-0.2-0.6-0.4l-1.2-1.8l-0.8-1.3L193,175l-0.6,1.5l-3.1,7.6
			l2,1l10.9,4.8l0.9,0.1l0.2,0.1l3,1.1h14.1v-4.6L213.2,184.3z M171.9,229.4h0.1v-0.2L171.9,229.4z M171.7,226.7l0.2,0.1V226
			L171.7,226.7z M158.3,201.5l-0.6-0.3l-10,16v11.3l0.1,0.1l1.7,0.8h19.8l1.6-4l-6.8-2.7l-5.1-2.1c-0.1-0.1-0.2-0.1-0.3-0.2l-2-1.8
			l1.5-1.8l1.8,1.6l6.4,2.7l0.7-1.7l-2.6-1l0.9-2.2l3.6,1.4c0.5,0.2,0.8,0.8,0.7,1.3l-0.2,1c0,0.1,0,0.1-0.1,0.2l-0.8,1.9l3.1,1.2
			l0.2,0.1V208L158.3,201.5z M197.4,173.9L197.4,173.9l0.1-0.4L197.4,173.9z M220.5,176v-4.3h-19.9l-0.9,2.9l12.2,4
			c0.3,0.1,0.5,0.3,0.6,0.5l1,1.7l0.9,1.4l1.4,0.4l4.7,1.6v-5.6l-5.8-2l0.8-2.2L220.5,176z M213.3,184.2c-0.3-0.1-0.5-0.2-0.6-0.4
			l-1.2-1.7l-0.8-1.3l-17.6-5.8l-0.6,1.5l-3.1,7.6l2,1l10.9,4.8l0.9,0.1l0.2,0.1l3,1.1h14.1v-4.6L213.3,184.2z M147.8,151.9v19.6
			l1.6,1.4l0.6-0.7l2.1-5.1l3.4-13.1L147.8,151.9z"/>
		<path class="st0" d="M245.8,149.4l-0.3,1.1l-0.3,1.1l-0.8,2.7l-0.2,1.1l0,0l-0.8,4.4v0.1l-5.3,17.2l-2.2-0.7l0.7-2.2l-3-1v26.1
			l5.8,2.3l6,2.2l-0.8,2.2l-5-1.8l-4.4,11.3l4.9,1.6l2.1-4.9c0.2-0.6,0.9-0.8,1.5-0.6l2.2,0.8l2.7-5l3.9-7l-14.3-5.4l0.8-2.2
			l15.5,5.9l3,1l0.2,0.1v-14.4h-1.8v-17.6h1.8V153L245.8,149.4z M309.1,180.7l2.6-5.5l-1.2-0.4c0.7-0.4,1.3-0.7,2-1.1l0,0l10.4-21.8
			l-14.4-5.1l-11.8-3.8l-1.3,3.2c2.9,2,4.6,5.4,4.4,9c0.2,3.1-1,6.1-3.3,8.3c-0.4,0.4-0.9,0.8-1.4,1.1c-0.3,0.2-0.5,0.3-0.8,0.5
			c-1.8,1-3.7,1.6-5.7,2l12.1,5.8l-1,2.1l-15.4-7.4c-0.9,0.1-1.8,0.1-2.8,0.1h-4l-2.9,7.2l-2.2-0.9l0.7-1.8l-3.1-1.3l0.9-2.2
			l3.1,1.3l1-2.5h-17.6v17.6h6.1l1.8-4.1c0.1-0.1,0.1-0.2,0.2-0.3l0.6-0.7l1.4-3l2.1,1l-1.5,3.1c0,0.1-0.1,0.2-0.2,0.3l-0.6,0.7
			L266,185h9.3l0.8-1.4l0.2-1.1c0-0.1,0-0.2,0.1-0.2l1-2.1l2.1,1l-0.9,2l-0.2,1.2c0,0.1-0.1,0.2-0.1,0.4l-0.2,0.4h7.6h1.6l0.8-1.8
			l1.3-5.1l2.3,0.6l-1.3,5.2v0.1l-0.5,1.2c2.1,0.2,4.1,0.5,6.1,1.1l0.7-0.9l1.8,1.5l-0.3,0.3c0.6,0.3,1.2,0.6,1.8,1
			c3.3,2.1,4.9,5.4,4.9,9.8c0,0.4,0,0.8,0,1.2l11-11.2l-6.6-6.2C309,181.7,308.9,181.1,309.1,180.7z M309.1,180.7l2.6-5.5l-1.2-0.4
			c0.7-0.4,1.3-0.7,2-1.1l0,0l10.4-21.8l-14.4-5.1l-11.8-3.8l-1.3,3.2c2.9,2,4.6,5.4,4.4,9c0.2,3.1-1,6.1-3.3,8.3
			c-0.4,0.4-0.9,0.8-1.4,1.1c-0.3,0.2-0.5,0.3-0.8,0.5c-1.8,1-3.7,1.6-5.7,2l12.1,5.8l-1,2.1l-15.4-7.4c-0.9,0.1-1.8,0.1-2.8,0.1h-4
			l-2.9,7.2l-2.2-0.9l0.7-1.8l-3.1-1.3l0.9-2.2l3.1,1.3l1-2.5h-17.6v17.6h6.1l1.8-4.1c0.1-0.1,0.1-0.2,0.2-0.3l0.6-0.7l1.4-3l2.1,1
			l-1.5,3.1c0,0.1-0.1,0.2-0.2,0.3l-0.6,0.7L266,185h9.3l0.8-1.4l0.2-1.1c0-0.1,0-0.2,0.1-0.2l1-2.1l2.1,1l-0.9,2l-0.2,1.2
			c0,0.1-0.1,0.2-0.1,0.4l-0.2,0.4h7.6h1.6l0.8-1.8l1.3-5.1l2.3,0.6l-1.3,5.2v0.1l-0.5,1.2c2.1,0.2,4.1,0.5,6.1,1.1l0.7-0.9l1.8,1.5
			l-0.3,0.3c0.6,0.3,1.2,0.6,1.8,1c3.3,2.1,4.9,5.4,4.9,9.8c0,0.4,0,0.8,0,1.2l11-11.2l-6.6-6.2C309,181.7,308.9,181.1,309.1,180.7z
			 M309.1,180.7l2.6-5.5l-1.2-0.4c0.7-0.4,1.3-0.7,2-1.1l0,0l10.4-21.8l-14.4-5.1l-11.8-3.8l-1.3,3.2c2.9,2,4.6,5.4,4.4,9
			c0.2,3.1-1,6.1-3.3,8.3c-0.4,0.4-0.9,0.8-1.4,1.1c-0.3,0.2-0.5,0.3-0.8,0.5c-1.8,1-3.7,1.6-5.7,2l12.1,5.8l-1,2.1l-15.4-7.4
			c-0.9,0.1-1.8,0.1-2.8,0.1h-4l-2.9,7.2l-2.2-0.9l0.7-1.8l-3.1-1.3l0.9-2.2l3.1,1.3l1-2.5h-17.6v17.6h6.1l1.8-4.1
			c0.1-0.1,0.1-0.2,0.2-0.3l0.6-0.7l1.4-3l2.1,1l-1.5,3.1c0,0.1-0.1,0.2-0.2,0.3l-0.6,0.7L266,185h9.3l0.8-1.4l0.2-1.1
			c0-0.1,0-0.2,0.1-0.2l1-2.1l2.1,1l-0.9,2l-0.2,1.2c0,0.1-0.1,0.2-0.1,0.4l-0.2,0.4h7.6h1.6l0.8-1.8l1.3-5.1l2.3,0.6l-1.3,5.2v0.1
			l-0.5,1.2c2.1,0.2,4.1,0.5,6.1,1.1l0.7-0.9l1.8,1.5l-0.3,0.3c0.6,0.3,1.2,0.6,1.8,1c3.3,2.1,4.9,5.4,4.9,9.8c0,0.4,0,0.8,0,1.2
			l11-11.2l-6.6-6.2C309,181.7,308.9,181.1,309.1,180.7z M309.1,180.7l2.6-5.5l-1.2-0.4c0.7-0.4,1.3-0.7,2-1.1l0,0l10.4-21.8
			l-14.4-5.1l-11.8-3.8l-1.3,3.2c2.9,2,4.6,5.4,4.4,9c0.2,3.1-1,6.1-3.3,8.3c-0.4,0.4-0.9,0.8-1.4,1.1c-0.3,0.2-0.5,0.3-0.8,0.5
			c-1.8,1-3.7,1.6-5.7,2l12.1,5.8l-1,2.1l-15.4-7.4c-0.9,0.1-1.8,0.1-2.8,0.1h-4l-2.9,7.2l-2.2-0.9l0.7-1.8l-3.1-1.3l0.9-2.2
			l3.1,1.3l1-2.5h-17.6v17.6h6.1l1.8-4.1c0.1-0.1,0.1-0.2,0.2-0.3l0.6-0.7l1.4-3l2.1,1l-1.5,3.1c0,0.1-0.1,0.2-0.2,0.3l-0.6,0.7
			L266,185h9.3l0.8-1.4l0.2-1.1c0-0.1,0-0.2,0.1-0.2l1-2.1l2.1,1l-0.9,2l-0.2,1.2c0,0.1-0.1,0.2-0.1,0.4l-0.2,0.4h7.6h1.6l0.8-1.8
			l1.3-5.1l2.3,0.6l-1.3,5.2v0.1l-0.5,1.2c2.1,0.2,4.1,0.5,6.1,1.1l0.7-0.9l1.8,1.5l-0.3,0.3c0.6,0.3,1.2,0.6,1.8,1
			c3.3,2.1,4.9,5.4,4.9,9.8c0,0.4,0,0.8,0,1.2l11-11.2l-6.6-6.2C309,181.7,308.9,181.1,309.1,180.7z M309.1,180.7l2.6-5.5l-1.2-0.4
			c0.7-0.4,1.3-0.7,2-1.1l0,0l10.4-21.8l-14.4-5.1l-11.8-3.8l-1.3,3.2c2.9,2,4.6,5.4,4.4,9c0.2,3.1-1,6.1-3.3,8.3
			c-0.4,0.4-0.9,0.8-1.4,1.1c-0.3,0.2-0.5,0.3-0.8,0.5c-1.8,1-3.7,1.6-5.7,2l12.1,5.8l-1,2.1l-15.4-7.4c-0.9,0.1-1.8,0.1-2.8,0.1h-4
			l-2.9,7.2l-2.2-0.9l0.7-1.8l-3.1-1.3l0.9-2.2l3.1,1.3l1-2.5h-17.6v17.6h6.1l1.8-4.1c0.1-0.1,0.1-0.2,0.2-0.3l0.6-0.7l1.4-3l2.1,1
			l-1.5,3.1c0,0.1-0.1,0.2-0.2,0.3l-0.6,0.7L266,185h9.3l0.8-1.4l0.2-1.1c0-0.1,0-0.2,0.1-0.2l1-2.1l2.1,1l-0.9,2l-0.2,1.2
			c0,0.1-0.1,0.2-0.1,0.4l-0.2,0.4h7.6h1.6l0.8-1.8l1.3-5.1l2.3,0.6l-1.3,5.2v0.1l-0.5,1.2c2.1,0.2,4.1,0.5,6.1,1.1l0.7-0.9l1.8,1.5
			l-0.3,0.3c0.6,0.3,1.2,0.6,1.8,1c3.3,2.1,4.9,5.4,4.9,9.8c0,0.4,0,0.8,0,1.2l11-11.2l-6.6-6.2C309,181.7,308.9,181.1,309.1,180.7z
			 M309.1,180.7l2.6-5.5l-1.2-0.4c0.7-0.4,1.3-0.7,2-1.1l0,0l10.4-21.8l-14.4-5.1l-11.8-3.8l-1.3,3.2c2.9,2,4.6,5.4,4.4,9
			c0.2,3.1-1,6.1-3.3,8.3c-0.4,0.4-0.9,0.8-1.4,1.1c-0.3,0.2-0.5,0.3-0.8,0.5c-1.8,1-3.7,1.6-5.7,2l12.1,5.8l-1,2.1l-15.4-7.4
			c-0.9,0.1-1.8,0.1-2.8,0.1h-4l-2.9,7.2l-2.2-0.9l0.7-1.8l-3.1-1.3l0.9-2.2l3.1,1.3l1-2.5h-17.6v17.6h6.1l1.8-4.1
			c0.1-0.1,0.1-0.2,0.2-0.3l0.6-0.7l1.4-3l2.1,1l-1.5,3.1c0,0.1-0.1,0.2-0.2,0.3l-0.6,0.7L266,185h9.3l0.8-1.4l0.2-1.1
			c0-0.1,0-0.2,0.1-0.2l1-2.1l2.1,1l-0.9,2l-0.2,1.2c0,0.1-0.1,0.2-0.1,0.4l-0.2,0.4h7.6h1.6l0.8-1.8l1.3-5.1l2.3,0.6l-1.3,5.2v0.1
			l-0.5,1.2c2.1,0.2,4.1,0.5,6.1,1.1l0.7-0.9l1.8,1.5l-0.3,0.3c0.6,0.3,1.2,0.6,1.8,1c3.3,2.1,4.9,5.4,4.9,9.8c0,0.4,0,0.8,0,1.2
			l11-11.2l-6.6-6.2C309,181.7,308.9,181.1,309.1,180.7z M309.1,180.7l2.6-5.5l-1.2-0.4c0.7-0.4,1.3-0.7,2-1.1l0,0l10.4-21.8
			l-14.4-5.1l-11.8-3.8l-1.3,3.2c2.9,2,4.6,5.4,4.4,9c0.2,3.1-1,6.1-3.3,8.3c-0.4,0.4-0.9,0.8-1.4,1.1c-0.3,0.2-0.5,0.3-0.8,0.5
			c-1.8,1-3.7,1.6-5.7,2l12.1,5.8l-1,2.1l-15.4-7.4c-0.9,0.1-1.8,0.1-2.8,0.1h-4l-2.9,7.2l-2.2-0.9l0.7-1.8l-3.1-1.3l0.9-2.2
			l3.1,1.3l1-2.5h-17.6v17.6h6.1l1.8-4.1c0.1-0.1,0.1-0.2,0.2-0.3l0.6-0.7l1.4-3l2.1,1l-1.5,3.1c0,0.1-0.1,0.2-0.2,0.3l-0.6,0.7
			L266,185h9.3l0.8-1.4l0.2-1.1c0-0.1,0-0.2,0.1-0.2l1-2.1l2.1,1l-0.9,2l-0.2,1.2c0,0.1-0.1,0.2-0.1,0.4l-0.2,0.4h7.6h1.6l0.8-1.8
			l1.3-5.1l2.3,0.6l-1.3,5.2v0.1l-0.5,1.2c2.1,0.2,4.1,0.5,6.1,1.1l0.7-0.9l1.8,1.5l-0.3,0.3c0.6,0.3,1.2,0.6,1.8,1
			c3.3,2.1,4.9,5.4,4.9,9.8c0,0.4,0,0.8,0,1.2l11-11.2l-6.6-6.2C309,181.7,308.9,181.1,309.1,180.7z M309.1,180.7l2.6-5.5l-1.2-0.4
			c0.7-0.4,1.3-0.7,2-1.1l0,0l10.4-21.8l-14.4-5.1l-11.8-3.8l-1.3,3.2c2.9,2,4.6,5.4,4.4,9c0.2,3.1-1,6.1-3.3,8.3
			c-0.4,0.4-0.9,0.8-1.4,1.1c-0.3,0.2-0.5,0.3-0.8,0.5c-1.8,1-3.7,1.6-5.7,2l12.1,5.8l-1,2.1l-15.4-7.4c-0.9,0.1-1.8,0.1-2.8,0.1h-4
			l-2.9,7.2l-2.2-0.9l0.7-1.8l-3.1-1.3l0.9-2.2l3.1,1.3l1-2.5h-17.6v17.6h6.1l1.8-4.1c0.1-0.1,0.1-0.2,0.2-0.3l0.6-0.7l1.4-3l2.1,1
			l-1.5,3.1c0,0.1-0.1,0.2-0.2,0.3l-0.6,0.7L266,185h9.3l0.8-1.4l0.2-1.1c0-0.1,0-0.2,0.1-0.2l1-2.1l2.1,1l-0.9,2l-0.2,1.2
			c0,0.1-0.1,0.2-0.1,0.4l-0.2,0.4h7.6h1.6l0.8-1.8l1.3-5.1l2.3,0.6l-1.3,5.2v0.1l-0.5,1.2c2.1,0.2,4.1,0.5,6.1,1.1l0.7-0.9l1.8,1.5
			l-0.3,0.3c0.6,0.3,1.2,0.6,1.8,1c3.3,2.1,4.9,5.4,4.9,9.8c0,0.4,0,0.8,0,1.2l11-11.2l-6.6-6.2C309,181.7,308.9,181.1,309.1,180.7z
			 M309.1,180.7l2.6-5.5l-1.2-0.4c0.7-0.4,1.3-0.7,2-1.1l0,0l10.4-21.8l-14.4-5.1l-11.8-3.8l-1.3,3.2c2.9,2,4.6,5.4,4.4,9
			c0.2,3.1-1,6.1-3.3,8.3c-0.4,0.4-0.9,0.8-1.4,1.1c-0.3,0.2-0.5,0.3-0.8,0.5c-1.8,1-3.7,1.6-5.7,2l12.1,5.8l-1,2.1l-15.4-7.4
			c-0.9,0.1-1.8,0.1-2.8,0.1h-4l-2.9,7.2l-2.2-0.9l0.7-1.8l-3.1-1.3l0.9-2.2l3.1,1.3l1-2.5h-17.6v17.6h6.1l1.8-4.1
			c0.1-0.1,0.1-0.2,0.2-0.3l0.6-0.7l1.4-3l2.1,1l-1.5,3.1c0,0.1-0.1,0.2-0.2,0.3l-0.6,0.7L266,185h9.3l0.8-1.4l0.2-1.1
			c0-0.1,0-0.2,0.1-0.2l1-2.1l2.1,1l-0.9,2l-0.2,1.2c0,0.1-0.1,0.2-0.1,0.4l-0.2,0.4h7.6h1.6l0.8-1.8l1.3-5.1l2.3,0.6l-1.3,5.2v0.1
			l-0.5,1.2c2.1,0.2,4.1,0.5,6.1,1.1l0.7-0.9l1.8,1.5l-0.3,0.3c0.6,0.3,1.2,0.6,1.8,1c3.3,2.1,4.9,5.4,4.9,9.8c0,0.4,0,0.8,0,1.2
			l11-11.2l-6.6-6.2C309,181.7,308.9,181.1,309.1,180.7z M309.1,180.7l2.6-5.5l-1.2-0.4c0.7-0.4,1.3-0.7,2-1.1l0,0l10.4-21.8
			l-14.4-5.1l-11.8-3.8l-1.3,3.2c2.9,2,4.6,5.4,4.4,9c0.2,3.1-1,6.1-3.3,8.3c-0.4,0.4-0.9,0.8-1.4,1.1c-0.3,0.2-0.5,0.3-0.8,0.5
			c-1.8,1-3.7,1.6-5.7,2l12.1,5.8l-1,2.1l-15.4-7.4c-0.9,0.1-1.8,0.1-2.8,0.1h-4l-2.9,7.2l-2.2-0.9l0.7-1.8l-3.1-1.3l0.9-2.2
			l3.1,1.3l1-2.5h-17.6v17.6h6.1l1.8-4.1c0.1-0.1,0.1-0.2,0.2-0.3l0.6-0.7l1.4-3l2.1,1l-1.5,3.1c0,0.1-0.1,0.2-0.2,0.3l-0.6,0.7
			L266,185h9.3l0.8-1.4l0.2-1.1c0-0.1,0-0.2,0.1-0.2l1-2.1l2.1,1l-0.9,2l-0.2,1.2c0,0.1-0.1,0.2-0.1,0.4l-0.2,0.4h7.6h1.6l0.8-1.8
			l1.3-5.1l2.3,0.6l-1.3,5.2v0.1l-0.5,1.2c2.1,0.2,4.1,0.5,6.1,1.1l0.7-0.9l1.8,1.5l-0.3,0.3c0.6,0.3,1.2,0.6,1.8,1
			c3.3,2.1,4.9,5.4,4.9,9.8c0,0.4,0,0.8,0,1.2l11-11.2l-6.6-6.2C309,181.7,308.9,181.1,309.1,180.7z M309.1,180.7l2.6-5.5l-1.2-0.4
			c0.7-0.4,1.3-0.7,2-1.1l0,0l10.4-21.8l-14.4-5.1l-11.8-3.8l-1.3,3.2c2.9,2,4.6,5.4,4.4,9c0.2,3.1-1,6.1-3.3,8.3
			c-0.4,0.4-0.9,0.8-1.4,1.1c-0.3,0.2-0.5,0.3-0.8,0.5c-1.8,1-3.7,1.6-5.7,2l12.1,5.8l-1,2.1l-15.4-7.4c-0.9,0.1-1.8,0.1-2.8,0.1h-4
			l-2.9,7.2l-2.2-0.9l0.7-1.8l-3.1-1.3l0.9-2.2l3.1,1.3l1-2.5h-17.6v17.6h6.1l1.8-4.1c0.1-0.1,0.1-0.2,0.2-0.3l0.6-0.7l1.4-3l2.1,1
			l-1.5,3.1c0,0.1-0.1,0.2-0.2,0.3l-0.6,0.7L266,185h9.3l0.8-1.4l0.2-1.1c0-0.1,0-0.2,0.1-0.2l1-2.1l2.1,1l-0.9,2l-0.2,1.2
			c0,0.1-0.1,0.2-0.1,0.4l-0.2,0.4h7.6h1.6l0.8-1.8l1.3-5.1l2.3,0.6l-1.3,5.2v0.1l-0.5,1.2c2.1,0.2,4.1,0.5,6.1,1.1l0.7-0.9l1.8,1.5
			l-0.3,0.3c0.6,0.3,1.2,0.6,1.8,1c3.3,2.1,4.9,5.4,4.9,9.8c0,0.4,0,0.8,0,1.2l11-11.2l-6.6-6.2C309,181.7,308.9,181.1,309.1,180.7z
			 M309.1,180.7l2.6-5.5l-1.2-0.4c0.7-0.4,1.3-0.7,2-1.1l0,0l10.4-21.8l-14.4-5.1l-11.8-3.8l-1.3,3.2c2.9,2,4.6,5.4,4.4,9
			c0.2,3.1-1,6.1-3.3,8.3c-0.4,0.4-0.9,0.8-1.4,1.1c-0.3,0.2-0.5,0.3-0.8,0.5c-1.8,1-3.7,1.6-5.7,2l12.1,5.8l-1,2.1l-15.4-7.4
			c-0.9,0.1-1.8,0.1-2.8,0.1h-4l-2.9,7.2l-2.2-0.9l0.7-1.8l-3.1-1.3l0.9-2.2l3.1,1.3l1-2.5h-17.6v17.6h6.1l1.8-4.1
			c0.1-0.1,0.1-0.2,0.2-0.3l0.6-0.7l1.4-3l2.1,1l-1.5,3.1c0,0.1-0.1,0.2-0.2,0.3l-0.6,0.7L266,185h9.3l0.8-1.4l0.2-1.1
			c0-0.1,0-0.2,0.1-0.2l1-2.1l2.1,1l-0.9,2l-0.2,1.2c0,0.1-0.1,0.2-0.1,0.4l-0.2,0.4h7.6h1.6l0.8-1.8l1.3-5.1l2.3,0.6l-1.3,5.2v0.1
			l-0.5,1.2c2.1,0.2,4.1,0.5,6.1,1.1l0.7-0.9l1.8,1.5l-0.3,0.3c0.6,0.3,1.2,0.6,1.8,1c3.3,2.1,4.9,5.4,4.9,9.8c0,0.4,0,0.8,0,1.2
			l11-11.2l-6.6-6.2C309,181.7,308.9,181.1,309.1,180.7z M309.1,180.7l2.6-5.5l-1.2-0.4c0.7-0.4,1.3-0.7,2-1.1l0,0l10.4-21.8
			l-14.4-5.1l-11.8-3.8l-1.3,3.2c2.9,2,4.6,5.4,4.4,9c0.2,3.1-1,6.1-3.3,8.3c-0.4,0.4-0.9,0.8-1.4,1.1c-0.3,0.2-0.5,0.3-0.8,0.5
			c-1.8,1-3.7,1.6-5.7,2l12.1,5.8l-1,2.1l-15.4-7.4c-0.9,0.1-1.8,0.1-2.8,0.1h-4l-2.9,7.2l-2.2-0.9l0.7-1.8l-3.1-1.3l0.9-2.2
			l3.1,1.3l1-2.5h-17.6v17.6h6.1l1.8-4.1c0.1-0.1,0.1-0.2,0.2-0.3l0.6-0.7l1.4-3l2.1,1l-1.5,3.1c0,0.1-0.1,0.2-0.2,0.3l-0.6,0.7
			L266,185h9.3l0.8-1.4l0.2-1.1c0-0.1,0-0.2,0.1-0.2l1-2.1l2.1,1l-0.9,2l-0.2,1.2c0,0.1-0.1,0.2-0.1,0.4l-0.2,0.4h7.6h1.6l0.8-1.8
			l1.3-5.1l2.3,0.6l-1.3,5.2v0.1l-0.5,1.2c2.1,0.2,4.1,0.5,6.1,1.1l0.7-0.9l1.8,1.5l-0.3,0.3c0.6,0.3,1.2,0.6,1.8,1
			c3.3,2.1,4.9,5.4,4.9,9.8c0,0.4,0,0.8,0,1.2l11-11.2l-6.6-6.2C309,181.7,308.9,181.1,309.1,180.7z M285.9,211.1h-4.5l3.3,2
			c0.1,0.1,0.2,0.1,0.2,0.2l3.3,3.3l6.1-6.3C291.5,210.8,288.7,211.1,285.9,211.1L285.9,211.1z M285.9,211.1h-4.5l3.3,2
			c0.1,0.1,0.2,0.1,0.2,0.2l3.3,3.3l6.1-6.3C291.5,210.8,288.7,211.1,285.9,211.1L285.9,211.1z M285.9,211.1h-4.5l3.3,2
			c0.1,0.1,0.2,0.1,0.2,0.2l3.3,3.3l6.1-6.3C291.5,210.8,288.7,211.1,285.9,211.1L285.9,211.1z M285.9,211.1h-4.5l3.3,2
			c0.1,0.1,0.2,0.1,0.2,0.2l3.3,3.3l6.1-6.3C291.5,210.8,288.7,211.1,285.9,211.1L285.9,211.1z M285.9,211.1h-4.5l3.3,2
			c0.1,0.1,0.2,0.1,0.2,0.2l3.3,3.3l6.1-6.3C291.5,210.8,288.7,211.1,285.9,211.1L285.9,211.1z M285.9,211.1h-4.5l3.3,2
			c0.1,0.1,0.2,0.1,0.2,0.2l3.3,3.3l6.1-6.3C291.5,210.8,288.7,211.1,285.9,211.1L285.9,211.1z M285.9,211.1h-4.5l3.3,2
			c0.1,0.1,0.2,0.1,0.2,0.2l3.3,3.3l6.1-6.3C291.5,210.8,288.7,211.1,285.9,211.1L285.9,211.1z M285.9,211.1h-4.5l3.3,2
			c0.1,0.1,0.2,0.1,0.2,0.2l3.3,3.3l6.1-6.3C291.5,210.8,288.7,211.1,285.9,211.1L285.9,211.1z M285.9,211.1h-4.5l3.3,2
			c0.1,0.1,0.2,0.1,0.2,0.2l3.3,3.3l6.1-6.3C291.5,210.8,288.7,211.1,285.9,211.1L285.9,211.1z M285.9,211.1h-4.5l3.3,2
			c0.1,0.1,0.2,0.1,0.2,0.2l3.3,3.3l6.1-6.3C291.5,210.8,288.7,211.1,285.9,211.1L285.9,211.1z M285.9,211.1h-4.5l3.3,2
			c0.1,0.1,0.2,0.1,0.2,0.2l3.3,3.3l6.1-6.3C291.5,210.8,288.7,211.1,285.9,211.1L285.9,211.1z M285.9,211.1h-4.5l3.3,2
			c0.1,0.1,0.2,0.1,0.2,0.2l3.3,3.3l6.1-6.3C291.5,210.8,288.7,211.1,285.9,211.1L285.9,211.1z M285.9,211.1h-4.5l3.3,2
			c0.1,0.1,0.2,0.1,0.2,0.2l3.3,3.3l6.1-6.3C291.5,210.8,288.7,211.1,285.9,211.1L285.9,211.1z M285.9,211.1h-4.5l3.3,2
			c0.1,0.1,0.2,0.1,0.2,0.2l3.3,3.3l6.1-6.3C291.5,210.8,288.7,211.1,285.9,211.1L285.9,211.1z M285.9,211.1h-4.5l3.3,2
			c0.1,0.1,0.2,0.1,0.2,0.2l3.3,3.3l6.1-6.3C291.5,210.8,288.7,211.1,285.9,211.1L285.9,211.1z M285.9,211.1h-4.5l3.3,2
			c0.1,0.1,0.2,0.1,0.2,0.2l3.3,3.3l6.1-6.3C291.5,210.8,288.7,211.1,285.9,211.1L285.9,211.1z M285.9,211.1h-4.5l3.3,2
			c0.1,0.1,0.2,0.1,0.2,0.2l3.3,3.3l6.1-6.3C291.5,210.8,288.7,211.1,285.9,211.1L285.9,211.1z M285.9,211.1h-4.5l3.3,2
			c0.1,0.1,0.2,0.1,0.2,0.2l3.3,3.3l6.1-6.3C291.5,210.8,288.7,211.1,285.9,211.1L285.9,211.1z M285.9,211.1h-4.5l3.3,2
			c0.1,0.1,0.2,0.1,0.2,0.2l3.3,3.3l6.1-6.3C291.5,210.8,288.7,211.1,285.9,211.1L285.9,211.1z M285.9,211.1h-4.5l3.3,2
			c0.1,0.1,0.2,0.1,0.2,0.2l3.3,3.3l6.1-6.3C291.5,210.8,288.7,211.1,285.9,211.1L285.9,211.1z M285.9,211.1h-4.5l3.3,2
			c0.1,0.1,0.2,0.1,0.2,0.2l3.3,3.3l6.1-6.3C291.5,210.8,288.7,211.1,285.9,211.1L285.9,211.1z M285.9,211.1h-4.5l3.3,2
			c0.1,0.1,0.2,0.1,0.2,0.2l3.3,3.3l6.1-6.3C291.5,210.8,288.7,211.1,285.9,211.1L285.9,211.1z M285.9,211.1h-4.5l3.3,2
			c0.1,0.1,0.2,0.1,0.2,0.2l3.3,3.3l6.1-6.3C291.5,210.8,288.7,211.1,285.9,211.1L285.9,211.1z M285.9,211.1h-4.5l3.3,2
			c0.1,0.1,0.2,0.1,0.2,0.2l3.3,3.3l6.1-6.3C291.5,210.8,288.7,211.1,285.9,211.1L285.9,211.1z M285.9,211.1h-4.5l3.3,2
			c0.1,0.1,0.2,0.1,0.2,0.2l3.3,3.3l6.1-6.3C291.5,210.8,288.7,211.1,285.9,211.1L285.9,211.1z M285.9,211.1h-4.5l3.3,2
			c0.1,0.1,0.2,0.1,0.2,0.2l3.3,3.3l6.1-6.3C291.5,210.8,288.7,211.1,285.9,211.1L285.9,211.1z M285.9,211.1h-4.5l3.3,2
			c0.1,0.1,0.2,0.1,0.2,0.2l3.3,3.3l6.1-6.3C291.5,210.8,288.7,211.1,285.9,211.1L285.9,211.1z M285.9,211.1h-4.5l3.3,2
			c0.1,0.1,0.2,0.1,0.2,0.2l3.3,3.3l6.1-6.3C291.5,210.8,288.7,211.1,285.9,211.1L285.9,211.1z M285.9,211.1h-4.5l3.3,2
			c0.1,0.1,0.2,0.1,0.2,0.2l3.3,3.3l6.1-6.3C291.5,210.8,288.7,211.1,285.9,211.1L285.9,211.1z M285.9,211.1h-4.5l3.3,2
			c0.1,0.1,0.2,0.1,0.2,0.2l3.3,3.3l6.1-6.3C291.5,210.8,288.7,211.1,285.9,211.1L285.9,211.1z M285.9,211.1h-4.5l3.3,2
			c0.1,0.1,0.2,0.1,0.2,0.2l3.3,3.3l6.1-6.3C291.5,210.8,288.7,211.1,285.9,211.1L285.9,211.1z M285.9,211.1h-4.5l3.3,2
			c0.1,0.1,0.2,0.1,0.2,0.2l3.3,3.3l6.1-6.3C291.5,210.8,288.7,211.1,285.9,211.1L285.9,211.1z M285.9,211.1h-4.5l3.3,2
			c0.1,0.1,0.2,0.1,0.2,0.2l3.3,3.3l6.1-6.3C291.5,210.8,288.7,211.1,285.9,211.1L285.9,211.1z M285.9,211.1h-4.5l3.3,2
			c0.1,0.1,0.2,0.1,0.2,0.2l3.3,3.3l6.1-6.3C291.5,210.8,288.7,211.1,285.9,211.1L285.9,211.1z M285.9,211.1h-4.5l3.3,2
			c0.1,0.1,0.2,0.1,0.2,0.2l3.3,3.3l6.1-6.3C291.5,210.8,288.7,211.1,285.9,211.1L285.9,211.1z M285.9,211.1h-4.5l3.3,2
			c0.1,0.1,0.2,0.1,0.2,0.2l3.3,3.3l6.1-6.3C291.5,210.8,288.7,211.1,285.9,211.1L285.9,211.1z M285.9,211.1h-4.5l3.3,2
			c0.1,0.1,0.2,0.1,0.2,0.2l3.3,3.3l6.1-6.3C291.5,210.8,288.7,211.1,285.9,211.1L285.9,211.1z M285.9,211.1h-4.5l3.3,2
			c0.1,0.1,0.2,0.1,0.2,0.2l3.3,3.3l6.1-6.3C291.5,210.8,288.7,211.1,285.9,211.1L285.9,211.1z M285.9,211.1h-4.5l3.3,2
			c0.1,0.1,0.2,0.1,0.2,0.2l3.3,3.3l6.1-6.3C291.5,210.8,288.7,211.1,285.9,211.1L285.9,211.1z M285.9,211.1h-4.5l3.3,2
			c0.1,0.1,0.2,0.1,0.2,0.2l3.3,3.3l6.1-6.3C291.5,210.8,288.7,211.1,285.9,211.1L285.9,211.1z M285.9,211.1h-4.5l3.3,2
			c0.1,0.1,0.2,0.1,0.2,0.2l3.3,3.3l6.1-6.3C291.5,210.8,288.7,211.1,285.9,211.1L285.9,211.1z M285.9,211.1h-4.5l3.3,2
			c0.1,0.1,0.2,0.1,0.2,0.2l3.3,3.3l6.1-6.3C291.5,210.8,288.7,211.1,285.9,211.1L285.9,211.1z M285.9,211.1h-4.5l3.3,2
			c0.1,0.1,0.2,0.1,0.2,0.2l3.3,3.3l6.1-6.3C291.5,210.8,288.7,211.1,285.9,211.1L285.9,211.1z M285.9,211.1h-4.5l3.3,2
			c0.1,0.1,0.2,0.1,0.2,0.2l3.3,3.3l6.1-6.3C291.5,210.8,288.7,211.1,285.9,211.1L285.9,211.1z M285.9,211.1h-4.5l3.3,2
			c0.1,0.1,0.2,0.1,0.2,0.2l3.3,3.3l6.1-6.3C291.5,210.8,288.7,211.1,285.9,211.1L285.9,211.1z M285.9,211.1h-4.5l3.3,2
			c0.1,0.1,0.2,0.1,0.2,0.2l3.3,3.3l6.1-6.3C291.5,210.8,288.7,211.1,285.9,211.1L285.9,211.1z M285.9,211.1h-4.5l3.3,2
			c0.1,0.1,0.2,0.1,0.2,0.2l3.3,3.3l6.1-6.3C291.5,210.8,288.7,211.1,285.9,211.1L285.9,211.1z M285.9,211.1h-4.5l3.3,2
			c0.1,0.1,0.2,0.1,0.2,0.2l3.3,3.3l6.1-6.3C291.5,210.8,288.7,211.1,285.9,211.1L285.9,211.1z M285.9,211.1h-4.5l3.3,2
			c0.1,0.1,0.2,0.1,0.2,0.2l3.3,3.3l6.1-6.3C291.5,210.8,288.7,211.1,285.9,211.1L285.9,211.1z M285.9,211.1h-4.5l3.3,2
			c0.1,0.1,0.2,0.1,0.2,0.2l3.3,3.3l6.1-6.3C291.5,210.8,288.7,211.1,285.9,211.1L285.9,211.1z M285.9,211.1h-4.5l3.3,2
			c0.1,0.1,0.2,0.1,0.2,0.2l3.3,3.3l6.1-6.3C291.5,210.8,288.7,211.1,285.9,211.1L285.9,211.1z M285.9,211.1h-4.5l3.3,2
			c0.1,0.1,0.2,0.1,0.2,0.2l3.3,3.3l6.1-6.3C291.5,210.8,288.7,211.1,285.9,211.1L285.9,211.1z M285.9,211.1h-4.5l3.3,2
			c0.1,0.1,0.2,0.1,0.2,0.2l3.3,3.3l6.1-6.3C291.5,210.8,288.7,211.1,285.9,211.1L285.9,211.1z M285.9,211.1h-4.5l3.3,2
			c0.1,0.1,0.2,0.1,0.2,0.2l3.3,3.3l6.1-6.3C291.5,210.8,288.7,211.1,285.9,211.1L285.9,211.1z M285.9,211.1h-4.5l3.3,2
			c0.1,0.1,0.2,0.1,0.2,0.2l3.3,3.3l6.1-6.3C291.5,210.8,288.7,211.1,285.9,211.1L285.9,211.1z M285.9,211.1h-4.5l3.3,2
			c0.1,0.1,0.2,0.1,0.2,0.2l3.3,3.3l6.1-6.3C291.5,210.8,288.7,211.1,285.9,211.1L285.9,211.1z M285.9,211.1h-4.5l3.3,2
			c0.1,0.1,0.2,0.1,0.2,0.2l3.3,3.3l6.1-6.3C291.5,210.8,288.7,211.1,285.9,211.1L285.9,211.1z M285.9,211.1h-4.5l3.3,2
			c0.1,0.1,0.2,0.1,0.2,0.2l3.3,3.3l6.1-6.3C291.5,210.8,288.7,211.1,285.9,211.1L285.9,211.1z M285.9,211.1h-4.5l3.3,2
			c0.1,0.1,0.2,0.1,0.2,0.2l3.3,3.3l6.1-6.3C291.5,210.8,288.7,211.1,285.9,211.1L285.9,211.1z M285.9,211.1h-4.5l3.3,2
			c0.1,0.1,0.2,0.1,0.2,0.2l3.3,3.3l6.1-6.3C291.5,210.8,288.7,211.1,285.9,211.1L285.9,211.1z M285.9,211.1h-4.5l3.3,2
			c0.1,0.1,0.2,0.1,0.2,0.2l3.3,3.3l6.1-6.3C291.5,210.8,288.7,211.1,285.9,211.1L285.9,211.1z M285.9,211.1h-4.5l3.3,2
			c0.1,0.1,0.2,0.1,0.2,0.2l3.3,3.3l6.1-6.3C291.5,210.8,288.7,211.1,285.9,211.1L285.9,211.1z M285.9,211.1h-4.5l3.3,2
			c0.1,0.1,0.2,0.1,0.2,0.2l3.3,3.3l6.1-6.3C291.5,210.8,288.7,211.1,285.9,211.1L285.9,211.1z M285.9,211.1h-4.5l3.3,2
			c0.1,0.1,0.2,0.1,0.2,0.2l3.3,3.3l6.1-6.3C291.5,210.8,288.7,211.1,285.9,211.1L285.9,211.1z M285.9,211.1h-4.5l3.3,2
			c0.1,0.1,0.2,0.1,0.2,0.2l3.3,3.3l6.1-6.3C291.5,210.8,288.7,211.1,285.9,211.1L285.9,211.1z M285.9,211.1h-4.5l3.3,2
			c0.1,0.1,0.2,0.1,0.2,0.2l3.3,3.3l6.1-6.3C291.5,210.8,288.7,211.1,285.9,211.1L285.9,211.1z M285.9,211.1h-4.5l3.3,2
			c0.1,0.1,0.2,0.1,0.2,0.2l3.3,3.3l6.1-6.3C291.5,210.8,288.7,211.1,285.9,211.1L285.9,211.1z M285.9,211.1h-4.5l3.3,2
			c0.1,0.1,0.2,0.1,0.2,0.2l3.3,3.3l6.1-6.3C291.5,210.8,288.7,211.1,285.9,211.1L285.9,211.1z M279.2,211.1l1.2,0.9l0.6-0.9H279.2z
			 M329.2,203.8l-6.4-8.9l-4.4-4.2l-0.8-0.9l-5.7,5.7l-7.9,8.1c-0.8,1.8-2.1,3.3-3.8,4.4c-0.3,0.2-0.6,0.4-0.9,0.5l-9.4,9.7l4.5,4.9
			l6-3.9l12.7-9l1.4,1.9l-12.8,9.1l-5.7,3.7l3.6,3.8c8-1.1,14.5-3.3,19.4-6.8c3.6-2.5,6.5-5.9,8.3-9.8l-1.3-2l1.9-1.3l0.4,0.6
			c0.6-1.7,0.9-3.5,1.1-5.3L329.2,203.8z M285.9,211.1h-4.5l3.3,2c0.1,0.1,0.2,0.1,0.2,0.2l3.3,3.3l6.1-6.3
			C291.5,210.8,288.7,211.1,285.9,211.1L285.9,211.1z M289,217.4l-0.8-0.8l-0.8,0.8l1.6,1.6l0.8-0.8L289,217.4z M279.2,211.1
			l1.2,0.9l0.6-0.9H279.2z M329.2,203.8l-6.4-8.9l-4.4-4.2l-0.8-0.9l-5.7,5.7l-7.9,8.1c-0.8,1.8-2.1,3.3-3.8,4.4
			c-0.3,0.2-0.6,0.4-0.9,0.5l-9.4,9.7l4.5,4.9l6-3.9l12.7-9l1.4,1.9l-12.8,9.1l-5.7,3.7l3.6,3.8c8-1.1,14.5-3.3,19.4-6.8
			c3.6-2.5,6.5-5.9,8.3-9.8l-1.3-2l1.9-1.3l0.4,0.6c0.6-1.7,0.9-3.5,1.1-5.3L329.2,203.8z M285.9,211.1h-4.5l3.3,2
			c0.1,0.1,0.2,0.1,0.2,0.2l3.3,3.3l6.1-6.3C291.5,210.8,288.7,211.1,285.9,211.1L285.9,211.1z M289,217.4l-0.8-0.8l-0.8,0.8
			l1.6,1.6l0.8-0.8L289,217.4z M279.2,211.1l1.2,0.9l0.6-0.9H279.2z M329.2,203.8l-6.4-8.9l-4.4-4.2l-0.8-0.9l-5.7,5.7l-7.9,8.1
			c-0.8,1.8-2.1,3.3-3.8,4.4c-0.3,0.2-0.6,0.4-0.9,0.5l-9.4,9.7l4.5,4.9l6-3.9l12.7-9l1.4,1.9l-12.8,9.1l-5.7,3.7l3.6,3.8
			c8-1.1,14.5-3.3,19.4-6.8c3.6-2.5,6.5-5.9,8.3-9.8l-1.3-2l1.9-1.3l0.4,0.6c0.6-1.7,0.9-3.5,1.1-5.3L329.2,203.8z M285.9,211.1
			h-4.5l3.3,2c0.1,0.1,0.2,0.1,0.2,0.2l3.3,3.3l6.1-6.3C291.5,210.8,288.7,211.1,285.9,211.1L285.9,211.1z M289,217.4l-0.8-0.8
			l-0.8,0.8l1.6,1.6l0.8-0.8L289,217.4z M279.2,211.1l1.2,0.9l0.6-0.9H279.2z M329.2,203.8l-6.4-8.9l-4.4-4.2l-0.8-0.9l-5.7,5.7
			l-7.9,8.1c-0.8,1.8-2.1,3.3-3.8,4.4c-0.3,0.2-0.6,0.4-0.9,0.5l-9.4,9.7l4.5,4.9l6-3.9l12.7-9l1.4,1.9l-12.8,9.1l-5.7,3.7l3.6,3.8
			c8-1.1,14.5-3.3,19.4-6.8c3.6-2.5,6.5-5.9,8.3-9.8l-1.3-2l1.9-1.3l0.4,0.6c0.6-1.7,0.9-3.5,1.1-5.3L329.2,203.8z M285.9,211.1
			h-4.5l3.3,2c0.1,0.1,0.2,0.1,0.2,0.2l3.3,3.3l6.1-6.3C291.5,210.8,288.7,211.1,285.9,211.1L285.9,211.1z M289,217.4l-0.8-0.8
			l-0.8,0.8l1.6,1.6l0.8-0.8L289,217.4z M279.2,211.1l1.2,0.9l0.6-0.9H279.2z M329.2,203.8l-6.4-8.9l-4.4-4.2l-0.8-0.9l-5.7,5.7
			l-7.9,8.1c-0.8,1.8-2.1,3.3-3.8,4.4c-0.3,0.2-0.6,0.4-0.9,0.5l-9.4,9.7l4.5,4.9l6-3.9l12.7-9l1.4,1.9l-12.8,9.1l-5.7,3.7l3.6,3.8
			c8-1.1,14.5-3.3,19.4-6.8c3.6-2.5,6.5-5.9,8.3-9.8l-1.3-2l1.9-1.3l0.4,0.6c0.6-1.7,0.9-3.5,1.1-5.3L329.2,203.8z M285.9,211.1
			h-4.5l3.3,2c0.1,0.1,0.2,0.1,0.2,0.2l3.3,3.3l6.1-6.3C291.5,210.8,288.7,211.1,285.9,211.1L285.9,211.1z M289,217.4l-0.8-0.8
			l-0.8,0.8l1.6,1.6l0.8-0.8L289,217.4z M279.2,211.1l1.2,0.9l0.6-0.9H279.2z M329.2,203.8l-6.4-8.9l-4.4-4.2l-0.8-0.9l-5.7,5.7
			l-7.9,8.1c-0.8,1.8-2.1,3.3-3.8,4.4c-0.3,0.2-0.6,0.4-0.9,0.5l-9.4,9.7l4.5,4.9l6-3.9l12.7-9l1.4,1.9l-12.8,9.1l-5.7,3.7l3.6,3.8
			c8-1.1,14.5-3.3,19.4-6.8c3.6-2.5,6.5-5.9,8.3-9.8l-1.3-2l1.9-1.3l0.4,0.6c0.6-1.7,0.9-3.5,1.1-5.3L329.2,203.8z M285.9,211.1
			h-4.5l3.3,2c0.1,0.1,0.2,0.1,0.2,0.2l3.3,3.3l6.1-6.3C291.5,210.8,288.7,211.1,285.9,211.1L285.9,211.1z M289,217.4l-0.8-0.8
			l-0.8,0.8l1.6,1.6l0.8-0.8L289,217.4z M237.6,155.3l-4.1-0.9v16.5l3.7,1.2l3.8-12.6l0.6-3.2L237.6,155.3z M269.7,135.4l-1.7,6.4
			l3,1.1h10.7c4.9,0,8.9,0.7,11.9,2.1l1.1-2.7L269.7,135.4z M269.7,135.4l-1.7,6.4l3,1.1h10.7c4.9,0,8.9,0.7,11.9,2.1l1.1-2.7
			L269.7,135.4z M269.7,135.4l-1.7,6.4l3,1.1h10.7c4.9,0,8.9,0.7,11.9,2.1l1.1-2.7L269.7,135.4z M269.7,135.4l-1.7,6.4l3,1.1h10.7
			c4.9,0,8.9,0.7,11.9,2.1l1.1-2.7L269.7,135.4z M279.2,211.1l1.2,0.9l0.6-0.9H279.2z M329.2,203.8l-6.4-8.9l-4.4-4.2l-0.8-0.9
			l-5.7,5.7l-7.9,8.1c-0.8,1.8-2.1,3.3-3.8,4.4c-0.3,0.2-0.6,0.4-0.9,0.5l-9.4,9.7l4.5,4.9l6-3.9l12.7-9l1.4,1.9l-12.8,9.1l-5.7,3.7
			l3.6,3.8c8-1.1,14.5-3.3,19.4-6.8c3.6-2.5,6.5-5.9,8.3-9.8l-1.3-2l1.9-1.3l0.4,0.6c0.6-1.7,0.9-3.5,1.1-5.3L329.2,203.8z
			 M285.9,211.1h-4.5l3.3,2c0.1,0.1,0.2,0.1,0.2,0.2l3.3,3.3l6.1-6.3C291.5,210.8,288.7,211.1,285.9,211.1L285.9,211.1z M289,217.4
			l-0.8-0.8l-0.8,0.8l1.6,1.6l0.8-0.8L289,217.4z M279.2,211.1l1.2,0.9l0.6-0.9H279.2z M329.2,203.8l-6.4-8.9l-4.4-4.2l-0.8-0.9
			l-5.7,5.7l-7.9,8.1c-0.8,1.8-2.1,3.3-3.8,4.4c-0.3,0.2-0.6,0.4-0.9,0.5l-9.4,9.7l4.5,4.9l6-3.9l12.7-9l1.4,1.9l-12.8,9.1l-5.7,3.7
			l3.6,3.8c8-1.1,14.5-3.3,19.4-6.8c3.6-2.5,6.5-5.9,8.3-9.8l-1.3-2l1.9-1.3l0.4,0.6c0.6-1.7,0.9-3.5,1.1-5.3L329.2,203.8z
			 M285.9,211.1h-4.5l3.3,2c0.1,0.1,0.2,0.1,0.2,0.2l3.3,3.3l6.1-6.3C291.5,210.8,288.7,211.1,285.9,211.1L285.9,211.1z M289,217.4
			l-0.8-0.8l-0.8,0.8l1.6,1.6l0.8-0.8L289,217.4z M279.2,211.1l1.2,0.9l0.6-0.9H279.2z M329.2,203.8l-6.4-8.9l-4.4-4.2l-0.8-0.9
			l-5.7,5.7l-7.9,8.1c-0.8,1.8-2.1,3.3-3.8,4.4c-0.3,0.2-0.6,0.4-0.9,0.5l-9.4,9.7l4.5,4.9l6-3.9l12.7-9l1.4,1.9l-12.8,9.1l-5.7,3.7
			l3.6,3.8c8-1.1,14.5-3.3,19.4-6.8c3.6-2.5,6.5-5.9,8.3-9.8l-1.3-2l1.9-1.3l0.4,0.6c0.6-1.7,0.9-3.5,1.1-5.3L329.2,203.8z
			 M285.9,211.1h-4.5l3.3,2c0.1,0.1,0.2,0.1,0.2,0.2l3.3,3.3l6.1-6.3C291.5,210.8,288.7,211.1,285.9,211.1L285.9,211.1z M289,217.4
			l-0.8-0.8l-0.8,0.8l1.6,1.6l0.8-0.8L289,217.4z M279.2,211.1l1.2,0.9l0.6-0.9H279.2z M329.2,203.8l-6.4-8.9l-4.4-4.2l-0.8-0.9
			l-5.7,5.7l-7.9,8.1c-0.8,1.8-2.1,3.3-3.8,4.4c-0.3,0.2-0.6,0.4-0.9,0.5l-9.4,9.7l4.5,4.9l6-3.9l12.7-9l1.4,1.9l-12.8,9.1l-5.7,3.7
			l3.6,3.8c8-1.1,14.5-3.3,19.4-6.8c3.6-2.5,6.5-5.9,8.3-9.8l-1.3-2l1.9-1.3l0.4,0.6c0.6-1.7,0.9-3.5,1.1-5.3L329.2,203.8z
			 M285.9,211.1h-4.5l3.3,2c0.1,0.1,0.2,0.1,0.2,0.2l3.3,3.3l6.1-6.3C291.5,210.8,288.7,211.1,285.9,211.1L285.9,211.1z M289,217.4
			l-0.8-0.8l-0.8,0.8l1.6,1.6l0.8-0.8L289,217.4z M279.2,211.1l1.2,0.9l0.6-0.9H279.2z M329.2,203.8l-6.4-8.9l-4.4-4.2l-0.8-0.9
			l-5.7,5.7l-7.9,8.1c-0.8,1.8-2.1,3.3-3.8,4.4c-0.3,0.2-0.6,0.4-0.9,0.5l-9.4,9.7l4.5,4.9l6-3.9l12.7-9l1.4,1.9l-12.8,9.1l-5.7,3.7
			l3.6,3.8c8-1.1,14.5-3.3,19.4-6.8c3.6-2.5,6.5-5.9,8.3-9.8l-1.3-2l1.9-1.3l0.4,0.6c0.6-1.7,0.9-3.5,1.1-5.3L329.2,203.8z
			 M285.9,211.1h-4.5l3.3,2c0.1,0.1,0.2,0.1,0.2,0.2l3.3,3.3l6.1-6.3C291.5,210.8,288.7,211.1,285.9,211.1L285.9,211.1z M289,217.4
			l-0.8-0.8l-0.8,0.8l1.6,1.6l0.8-0.8L289,217.4z M279.2,211.1l1.2,0.9l0.6-0.9H279.2z M329.2,203.8l-6.4-8.9l-4.4-4.2l-0.8-0.9
			l-5.7,5.7l-7.9,8.1c-0.8,1.8-2.1,3.3-3.8,4.4c-0.3,0.2-0.6,0.4-0.9,0.5l-9.4,9.7l4.5,4.9l6-3.9l12.7-9l1.4,1.9l-12.8,9.1l-5.7,3.7
			l3.6,3.8c8-1.1,14.5-3.3,19.4-6.8c3.6-2.5,6.5-5.9,8.3-9.8l-1.3-2l1.9-1.3l0.4,0.6c0.6-1.7,0.9-3.5,1.1-5.3L329.2,203.8z
			 M285.9,211.1h-4.5l3.3,2c0.1,0.1,0.2,0.1,0.2,0.2l3.3,3.3l6.1-6.3C291.5,210.8,288.7,211.1,285.9,211.1L285.9,211.1z M289,217.4
			l-0.8-0.8l-0.8,0.8l1.6,1.6l0.8-0.8L289,217.4z M285.9,211.1h-4.5l3.3,2c0.1,0.1,0.2,0.1,0.2,0.2l3.3,3.3l6.1-6.3
			C291.5,210.8,288.7,211.1,285.9,211.1L285.9,211.1z M285.9,211.1h-4.5l3.3,2c0.1,0.1,0.2,0.1,0.2,0.2l3.3,3.3l6.1-6.3
			C291.5,210.8,288.7,211.1,285.9,211.1L285.9,211.1z M285.9,211.1h-4.5l3.3,2c0.1,0.1,0.2,0.1,0.2,0.2l3.3,3.3l6.1-6.3
			C291.5,210.8,288.7,211.1,285.9,211.1L285.9,211.1z M285.9,211.1h-4.5l3.3,2c0.1,0.1,0.2,0.1,0.2,0.2l3.3,3.3l6.1-6.3
			C291.5,210.8,288.7,211.1,285.9,211.1L285.9,211.1z M285.9,211.1h-4.5l3.3,2c0.1,0.1,0.2,0.1,0.2,0.2l3.3,3.3l6.1-6.3
			C291.5,210.8,288.7,211.1,285.9,211.1L285.9,211.1z M285.9,211.1h-4.5l3.3,2c0.1,0.1,0.2,0.1,0.2,0.2l3.3,3.3l6.1-6.3
			C291.5,210.8,288.7,211.1,285.9,211.1L285.9,211.1z M285.9,211.1h-4.5l3.3,2c0.1,0.1,0.2,0.1,0.2,0.2l3.3,3.3l6.1-6.3
			C291.5,210.8,288.7,211.1,285.9,211.1L285.9,211.1z M285.9,211.1h-4.5l3.3,2c0.1,0.1,0.2,0.1,0.2,0.2l3.3,3.3l6.1-6.3
			C291.5,210.8,288.7,211.1,285.9,211.1L285.9,211.1z M285.9,211.1h-4.5l3.3,2c0.1,0.1,0.2,0.1,0.2,0.2l3.3,3.3l6.1-6.3
			C291.5,210.8,288.7,211.1,285.9,211.1L285.9,211.1z M285.9,211.1h-4.5l3.3,2c0.1,0.1,0.2,0.1,0.2,0.2l3.3,3.3l6.1-6.3
			C291.5,210.8,288.7,211.1,285.9,211.1L285.9,211.1z M285.9,211.1h-4.5l3.3,2c0.1,0.1,0.2,0.1,0.2,0.2l3.3,3.3l6.1-6.3
			C291.5,210.8,288.7,211.1,285.9,211.1L285.9,211.1z M285.9,211.1h-4.5l3.3,2c0.1,0.1,0.2,0.1,0.2,0.2l3.3,3.3l6.1-6.3
			C291.5,210.8,288.7,211.1,285.9,211.1L285.9,211.1z M285.9,211.1h-4.5l3.3,2c0.1,0.1,0.2,0.1,0.2,0.2l3.3,3.3l6.1-6.3
			C291.5,210.8,288.7,211.1,285.9,211.1L285.9,211.1z M285.9,211.1h-4.5l3.3,2c0.1,0.1,0.2,0.1,0.2,0.2l3.3,3.3l6.1-6.3
			C291.5,210.8,288.7,211.1,285.9,211.1L285.9,211.1z M285.9,211.1h-4.5l3.3,2c0.1,0.1,0.2,0.1,0.2,0.2l3.3,3.3l6.1-6.3
			C291.5,210.8,288.7,211.1,285.9,211.1L285.9,211.1z M285.9,211.1h-4.5l3.3,2c0.1,0.1,0.2,0.1,0.2,0.2l3.3,3.3l6.1-6.3
			C291.5,210.8,288.7,211.1,285.9,211.1L285.9,211.1z M285.9,211.1h-4.5l3.3,2c0.1,0.1,0.2,0.1,0.2,0.2l3.3,3.3l6.1-6.3
			C291.5,210.8,288.7,211.1,285.9,211.1L285.9,211.1z M285.9,211.1h-4.5l3.3,2c0.1,0.1,0.2,0.1,0.2,0.2l3.3,3.3l6.1-6.3
			C291.5,210.8,288.7,211.1,285.9,211.1L285.9,211.1z M285.9,211.1h-4.5l3.3,2c0.1,0.1,0.2,0.1,0.2,0.2l3.3,3.3l6.1-6.3
			C291.5,210.8,288.7,211.1,285.9,211.1L285.9,211.1z M285.9,211.1h-4.5l3.3,2c0.1,0.1,0.2,0.1,0.2,0.2l3.3,3.3l6.1-6.3
			C291.5,210.8,288.7,211.1,285.9,211.1L285.9,211.1z M285.9,211.1h-4.5l3.3,2c0.1,0.1,0.2,0.1,0.2,0.2l3.3,3.3l6.1-6.3
			C291.5,210.8,288.7,211.1,285.9,211.1L285.9,211.1z M285.9,211.1h-4.5l3.3,2c0.1,0.1,0.2,0.1,0.2,0.2l3.3,3.3l6.1-6.3
			C291.5,210.8,288.7,211.1,285.9,211.1L285.9,211.1z M285.9,211.1h-4.5l3.3,2c0.1,0.1,0.2,0.1,0.2,0.2l3.3,3.3l6.1-6.3
			C291.5,210.8,288.7,211.1,285.9,211.1L285.9,211.1z M285.9,211.1h-4.5l3.3,2c0.1,0.1,0.2,0.1,0.2,0.2l3.3,3.3l6.1-6.3
			C291.5,210.8,288.7,211.1,285.9,211.1L285.9,211.1z M285.9,211.1h-4.5l3.3,2c0.1,0.1,0.2,0.1,0.2,0.2l3.3,3.3l6.1-6.3
			C291.5,210.8,288.7,211.1,285.9,211.1L285.9,211.1z M285.9,211.1h-4.5l3.3,2c0.1,0.1,0.2,0.1,0.2,0.2l3.3,3.3l6.1-6.3
			C291.5,210.8,288.7,211.1,285.9,211.1L285.9,211.1z M285.9,211.1h-4.5l3.3,2c0.1,0.1,0.2,0.1,0.2,0.2l3.3,3.3l6.1-6.3
			C291.5,210.8,288.7,211.1,285.9,211.1L285.9,211.1z M285.9,211.1h-4.5l3.3,2c0.1,0.1,0.2,0.1,0.2,0.2l3.3,3.3l6.1-6.3
			C291.5,210.8,288.7,211.1,285.9,211.1L285.9,211.1z M285.9,211.1h-4.5l3.3,2c0.1,0.1,0.2,0.1,0.2,0.2l3.3,3.3l6.1-6.3
			C291.5,210.8,288.7,211.1,285.9,211.1L285.9,211.1z M285.9,211.1h-4.5l3.3,2c0.1,0.1,0.2,0.1,0.2,0.2l3.3,3.3l6.1-6.3
			C291.5,210.8,288.7,211.1,285.9,211.1L285.9,211.1z M285.9,211.1h-4.5l3.3,2c0.1,0.1,0.2,0.1,0.2,0.2l3.3,3.3l6.1-6.3
			C291.5,210.8,288.7,211.1,285.9,211.1L285.9,211.1z M285.9,211.1h-4.5l3.3,2c0.1,0.1,0.2,0.1,0.2,0.2l3.3,3.3l6.1-6.3
			C291.5,210.8,288.7,211.1,285.9,211.1L285.9,211.1z M285.9,211.1h-4.5l3.3,2c0.1,0.1,0.2,0.1,0.2,0.2l3.3,3.3l6.1-6.3
			C291.5,210.8,288.7,211.1,285.9,211.1L285.9,211.1z M285.9,211.1h-4.5l3.3,2c0.1,0.1,0.2,0.1,0.2,0.2l3.3,3.3l6.1-6.3
			C291.5,210.8,288.7,211.1,285.9,211.1L285.9,211.1z M285.9,211.1h-4.5l3.3,2c0.1,0.1,0.2,0.1,0.2,0.2l3.3,3.3l6.1-6.3
			C291.5,210.8,288.7,211.1,285.9,211.1L285.9,211.1z M285.9,211.1h-4.5l3.3,2c0.1,0.1,0.2,0.1,0.2,0.2l3.3,3.3l6.1-6.3
			C291.5,210.8,288.7,211.1,285.9,211.1L285.9,211.1z M285.9,211.1h-4.5l3.3,2c0.1,0.1,0.2,0.1,0.2,0.2l3.3,3.3l6.1-6.3
			C291.5,210.8,288.7,211.1,285.9,211.1L285.9,211.1z M285.9,211.1h-4.5l3.3,2c0.1,0.1,0.2,0.1,0.2,0.2l3.3,3.3l6.1-6.3
			C291.5,210.8,288.7,211.1,285.9,211.1L285.9,211.1z M285.9,211.1h-4.5l3.3,2c0.1,0.1,0.2,0.1,0.2,0.2l3.3,3.3l6.1-6.3
			C291.5,210.8,288.7,211.1,285.9,211.1L285.9,211.1z M285.9,211.1h-4.5l3.3,2c0.1,0.1,0.2,0.1,0.2,0.2l3.3,3.3l6.1-6.3
			C291.5,210.8,288.7,211.1,285.9,211.1L285.9,211.1z M285.9,211.1h-4.5l3.3,2c0.1,0.1,0.2,0.1,0.2,0.2l3.3,3.3l6.1-6.3
			C291.5,210.8,288.7,211.1,285.9,211.1L285.9,211.1z M285.9,211.1h-4.5l3.3,2c0.1,0.1,0.2,0.1,0.2,0.2l3.3,3.3l6.1-6.3
			C291.5,210.8,288.7,211.1,285.9,211.1L285.9,211.1z M285.9,211.1h-4.5l3.3,2c0.1,0.1,0.2,0.1,0.2,0.2l3.3,3.3l6.1-6.3
			C291.5,210.8,288.7,211.1,285.9,211.1L285.9,211.1z M285.9,211.1h-4.5l3.3,2c0.1,0.1,0.2,0.1,0.2,0.2l3.3,3.3l6.1-6.3
			C291.5,210.8,288.7,211.1,285.9,211.1L285.9,211.1z M285.9,211.1h-4.5l3.3,2c0.1,0.1,0.2,0.1,0.2,0.2l3.3,3.3l6.1-6.3
			C291.5,210.8,288.7,211.1,285.9,211.1L285.9,211.1z M285.9,211.1h-4.5l3.3,2c0.1,0.1,0.2,0.1,0.2,0.2l3.3,3.3l6.1-6.3
			C291.5,210.8,288.7,211.1,285.9,211.1L285.9,211.1z M285.9,211.1h-4.5l3.3,2c0.1,0.1,0.2,0.1,0.2,0.2l3.3,3.3l6.1-6.3
			C291.5,210.8,288.7,211.1,285.9,211.1L285.9,211.1z M285.9,211.1h-4.5l3.3,2c0.1,0.1,0.2,0.1,0.2,0.2l3.3,3.3l6.1-6.3
			C291.5,210.8,288.7,211.1,285.9,211.1L285.9,211.1z M285.9,211.1h-4.5l3.3,2c0.1,0.1,0.2,0.1,0.2,0.2l3.3,3.3l6.1-6.3
			C291.5,210.8,288.7,211.1,285.9,211.1L285.9,211.1z M285.9,211.1h-4.5l3.3,2c0.1,0.1,0.2,0.1,0.2,0.2l3.3,3.3l6.1-6.3
			C291.5,210.8,288.7,211.1,285.9,211.1L285.9,211.1z M285.9,211.1h-4.5l3.3,2c0.1,0.1,0.2,0.1,0.2,0.2l3.3,3.3l6.1-6.3
			C291.5,210.8,288.7,211.1,285.9,211.1L285.9,211.1z M285.9,211.1h-4.5l3.3,2c0.1,0.1,0.2,0.1,0.2,0.2l3.3,3.3l6.1-6.3
			C291.5,210.8,288.7,211.1,285.9,211.1L285.9,211.1z M285.9,211.1h-4.5l3.3,2c0.1,0.1,0.2,0.1,0.2,0.2l3.3,3.3l6.1-6.3
			C291.5,210.8,288.7,211.1,285.9,211.1L285.9,211.1z M285.9,211.1h-4.5l3.3,2c0.1,0.1,0.2,0.1,0.2,0.2l3.3,3.3l6.1-6.3
			C291.5,210.8,288.7,211.1,285.9,211.1L285.9,211.1z M285.9,211.1h-4.5l3.3,2c0.1,0.1,0.2,0.1,0.2,0.2l3.3,3.3l6.1-6.3
			C291.5,210.8,288.7,211.1,285.9,211.1L285.9,211.1z M285.9,211.1h-4.5l3.3,2c0.1,0.1,0.2,0.1,0.2,0.2l3.3,3.3l6.1-6.3
			C291.5,210.8,288.7,211.1,285.9,211.1L285.9,211.1z M285.9,211.1h-4.5l3.3,2c0.1,0.1,0.2,0.1,0.2,0.2l3.3,3.3l6.1-6.3
			C291.5,210.8,288.7,211.1,285.9,211.1L285.9,211.1z M285.9,211.1h-4.5l3.3,2c0.1,0.1,0.2,0.1,0.2,0.2l3.3,3.3l6.1-6.3
			C291.5,210.8,288.7,211.1,285.9,211.1L285.9,211.1z M285.9,211.1h-4.5l3.3,2c0.1,0.1,0.2,0.1,0.2,0.2l3.3,3.3l6.1-6.3
			C291.5,210.8,288.7,211.1,285.9,211.1L285.9,211.1z M285.9,211.1h-4.5l3.3,2c0.1,0.1,0.2,0.1,0.2,0.2l3.3,3.3l6.1-6.3
			C291.5,210.8,288.7,211.1,285.9,211.1L285.9,211.1z M285.9,211.1h-4.5l3.3,2c0.1,0.1,0.2,0.1,0.2,0.2l3.3,3.3l6.1-6.3
			C291.5,210.8,288.7,211.1,285.9,211.1L285.9,211.1z M285.9,211.1h-4.5l3.3,2c0.1,0.1,0.2,0.1,0.2,0.2l3.3,3.3l6.1-6.3
			C291.5,210.8,288.7,211.1,285.9,211.1L285.9,211.1z M285.9,211.1h-4.5l3.3,2c0.1,0.1,0.2,0.1,0.2,0.2l3.3,3.3l6.1-6.3
			C291.5,210.8,288.7,211.1,285.9,211.1L285.9,211.1z M285.9,211.1h-4.5l3.3,2c0.1,0.1,0.2,0.1,0.2,0.2l3.3,3.3l6.1-6.3
			C291.5,210.8,288.7,211.1,285.9,211.1L285.9,211.1z M285.9,211.1h-4.5l3.3,2c0.1,0.1,0.2,0.1,0.2,0.2l3.3,3.3l6.1-6.3
			C291.5,210.8,288.7,211.1,285.9,211.1L285.9,211.1z M285.9,211.1h-4.5l3.3,2c0.1,0.1,0.2,0.1,0.2,0.2l3.3,3.3l6.1-6.3
			C291.5,210.8,288.7,211.1,285.9,211.1L285.9,211.1z M285.9,211.1h-4.5l3.3,2c0.1,0.1,0.2,0.1,0.2,0.2l3.3,3.3l6.1-6.3
			C291.5,210.8,288.7,211.1,285.9,211.1L285.9,211.1z M284.7,124.6h-12.1l-0.6,2.6l-1.6,6l25.1,6.9L301,127l0.3-0.7
			C295.8,125.1,290.2,124.5,284.7,124.6L284.7,124.6z M270.1,124.6L270.1,124.6L270.1,124.6L270.1,124.6z M269.4,126.9l-7-2.3h-24.2
			l2.3,1l9.6,3.7l14,5.1l3.1,1.1l2.4-8.6L269.4,126.9z M263.3,136.7l-12.9-4.8l-1,2.8l-2.1,5.6l-1.5,3.6l0.4,0.1l11.4,3.6v-4.8h7.6
			l0.2-0.6l1.2-4.4L263.3,136.7z M239.6,127.7l-6.1-2.7v15.2l4.7,1.1l5.4,1.8l0,0l1.8-4.1l1.9-5l1-2.9L239.6,127.7z M243.9,145.7
			l-6.6-2.1l-3.8-0.9v9.4l8.6,1.9v-0.1l1.1-4l1.2-4L243.9,145.7z M254.6,201l-3.4,6.2l6.4,2.7v-8L254.6,201z M233.5,201.9v11.2
			l3.8-9.7L233.5,201.9z M250.1,209.3l-2.7,5c-0.3,0.5-0.9,0.7-1.4,0.5l-2.1-0.7l-2.1,4.9c-0.2,0.4-0.6,0.7-1.1,0.7
			c-0.1,0-0.3,0-0.4-0.1l-6.7-2.3v5.6l4.6,1.4l1.2,0.3l0.6-1.3c0.2-0.5,0.8-0.8,1.3-0.6l1.5,0.4l0.3-0.5c0.3-0.4,0.7-0.6,1.2-0.5
			l1.3,0.2c0.1,0,0.2,0,0.2,0.1l3.8,1.6h0.1l7.5-11.7L250.1,209.3z M259.9,211.1c0.1,0.1,0.2,0.2,0.2,0.4c0.1,0.3,0.1,0.7-0.1,1
			l-7.8,12.2l7.1,3.9l4.4-5l-0.4-3.9c0-0.2,0-0.3,0-0.5l1.4-4.1c0-0.1,0.1-0.2,0.1-0.2l2.2-3.7L259.9,211.1z M250.3,226.3l-0.5,0.1
			c-0.3,0.1-0.5,0-0.8-0.1l-4-1.7l-0.4-0.1l-0.3,0.5c-0.3,0.4-0.8,0.6-1.3,0.5l-1.4-0.4l-0.6,1.3c-0.2,0.4-0.6,0.7-1.1,0.7
			c-0.1,0-0.2,0-0.3,0l-2.9-0.7l-3.3-1v3.8h22.4L250.3,226.3z M279.2,211.1l1.2,0.9l0.6-0.9H279.2z M294.1,226.2l-3.1,3
			c2-0.1,3.8-0.2,5.7-0.4L294.1,226.2z M287.3,219l-4-4l-4.5-2.7l-2.2-1.2h-7l-2.9,4.8l-1.3,3.8l0.5,4.1c0,0.3-0.1,0.7-0.3,0.9
			l-4.1,4.7h11.7l-0.6-0.5l1.5-1.8l2.9,2.3h10.5l5-4.8L287.3,219z M329.2,203.8l-6.4-8.9l-4.4-4.2l-0.8-0.9l-5.7,5.7l-7.9,8.1
			c-0.8,1.8-2.1,3.3-3.8,4.4c-0.3,0.2-0.6,0.4-0.9,0.5l-9.4,9.7l4.5,4.9l6-3.9l12.7-9l1.4,1.9l-12.8,9.1l-5.7,3.7l3.6,3.8
			c8-1.1,14.5-3.3,19.4-6.8c3.6-2.5,6.5-5.9,8.3-9.8l-1.3-2l1.9-1.3l0.4,0.6c0.6-1.7,0.9-3.5,1.1-5.3L329.2,203.8z M285.9,211.1
			h-4.5l3.3,2c0.1,0.1,0.2,0.1,0.2,0.2l3.3,3.3l6.1-6.3C291.5,210.9,288.7,211.1,285.9,211.1L285.9,211.1z M289,217.4l-0.8-0.8
			l-0.8,0.8l1.6,1.6l0.8-0.8L289,217.4z M325.3,185.4c-2.8-4.1-6.7-7.3-11.3-9.3l-2.3,4.9l6.8,6.4l3.4,3.5l2.7,2.5
			c0.1,0.1,0.1,0.1,0.1,0.2l1.1,1.5l3.8,5.3C329.7,195,328.2,189.8,325.3,185.4L325.3,185.4z M245.3,145h0.1l0,0H245.3z
			 M324.3,151.1l-0.7-0.4l-0.6,1.2l1.2,0.4h0.1v-0.5C324.3,151.6,324.3,151.3,324.3,151.1L324.3,151.1z M316.7,170.5
			c1.4-1.3,2.6-2.8,3.6-4.3c2.2-3.4,3.6-7.3,3.9-11.3L316.7,170.5z M314.4,132.1c-1.5-1.1-3.2-2.1-4.9-2.9l-0.7,2.1l-1.2-0.4
			l-4.8-1.9l-5,11.9l0.6,0.2l19.1,6.4l6.9,2.5C323.9,142.7,320.2,136.2,314.4,132.1L314.4,132.1z M269.7,135.5l-1.7,6.3l3,1.1h10.7
			c4.9,0,8.9,0.7,11.9,2.1l1.1-2.7L269.7,135.5z"/>
		<g class="st1">
			<path class="st0" d="M69.6,271.6c-2,0-3.7-0.4-5.1-1.2c-1.5-0.8-2.6-1.9-3.4-3.2c-0.8-1.4-1.2-2.9-1.2-4.7c0-1.8,0.4-3.3,1.2-4.7
				c0.8-1.4,1.9-2.4,3.2-3.2c1.4-0.8,2.9-1.2,4.7-1.2c1.7,0,3.2,0.4,4.6,1.1c1.3,0.7,2.4,1.8,3.2,3.2c0.8,1.4,1.2,3,1.2,4.8
				c0,0.2,0,0.4,0,0.6c0,0.2,0,0.4,0,0.6H63.1v-2.7h12.5L74,262c0-1-0.2-1.9-0.6-2.7c-0.4-0.8-1-1.4-1.8-1.8
				c-0.8-0.4-1.6-0.7-2.6-0.7c-1,0-1.9,0.2-2.7,0.7c-0.8,0.4-1.4,1.1-1.8,1.8c-0.4,0.8-0.6,1.7-0.6,2.8v0.7c0,1.1,0.2,2,0.7,2.8
				c0.5,0.8,1.2,1.4,2,1.9s1.9,0.7,3,0.7c1,0,1.9-0.2,2.7-0.5c0.8-0.3,1.5-0.8,2.1-1.5l2.2,2.5c-0.8,0.9-1.8,1.6-3,2.1
				C72.5,271.4,71.1,271.6,69.6,271.6z"/>
		</g>
		<g class="st1">
			<path class="st0" d="M81.2,263.9v-3.4h9.1v3.4H81.2z"/>
		</g>
		<g class="st1">
			<path class="st0" d="M99.5,271.4h-4.3v-23.1h16.9v3.6H99.5V271.4z M99.2,258.9h11.5v3.6H99.2V258.9z"/>
		</g>
		<g class="st1">
			<path class="st0" d="M123.3,271.6c-1.8,0-3.4-0.4-4.8-1.2c-1.4-0.8-2.5-1.9-3.3-3.2c-0.8-1.4-1.2-2.9-1.2-4.7
				c0-1.8,0.4-3.3,1.2-4.7c0.8-1.4,1.9-2.4,3.3-3.2c1.4-0.8,3-1.2,4.8-1.2c1.8,0,3.4,0.4,4.9,1.2c1.4,0.8,2.5,1.8,3.3,3.2
				c0.8,1.3,1.2,2.9,1.2,4.7c0,1.7-0.4,3.3-1.2,4.7c-0.8,1.4-1.9,2.4-3.3,3.2C126.7,271.2,125.1,271.6,123.3,271.6z M123.3,268.1
				c1,0,1.9-0.2,2.7-0.7c0.8-0.4,1.4-1.1,1.9-1.9c0.5-0.8,0.7-1.8,0.7-2.9c0-1.1-0.2-2.1-0.7-3c-0.5-0.8-1.1-1.5-1.9-1.9
				c-0.8-0.4-1.7-0.7-2.7-0.7c-1,0-1.9,0.2-2.7,0.7c-0.8,0.4-1.4,1.1-1.9,1.9s-0.7,1.8-0.7,3c0,1.1,0.2,2.1,0.7,2.9s1.1,1.5,1.9,1.9
				C121.4,267.9,122.3,268.1,123.3,268.1z"/>
		</g>
		<g class="st1">
			<path class="st0" d="M146.6,253.6c1.4,0,2.7,0.3,3.8,0.8s2,1.4,2.6,2.5c0.6,1.1,1,2.6,1,4.4v10.1h-4.1v-9.6
				c0-1.6-0.4-2.7-1.1-3.5c-0.7-0.8-1.8-1.2-3.1-1.2c-1,0-1.8,0.2-2.6,0.6c-0.7,0.4-1.3,1-1.7,1.8c-0.4,0.8-0.6,1.8-0.6,3v8.9h-4.1
				v-17.6h3.9v4.8l-0.7-1.5c0.6-1.1,1.5-2,2.7-2.6C143.7,253.9,145.1,253.6,146.6,253.6z"/>
		</g>
		<g class="st1">
			<path class="st0" d="M167.4,271.6c-1.8,0-3.5-0.4-4.9-1.2c-1.4-0.8-2.6-1.9-3.4-3.2c-0.8-1.4-1.2-2.9-1.2-4.7
				c0-1.8,0.4-3.3,1.2-4.7c0.8-1.4,1.9-2.4,3.4-3.2c1.4-0.8,3.1-1.2,4.9-1.2c1.7,0,3.2,0.3,4.5,1c1.3,0.7,2.3,1.7,3,3.1l-3.2,1.8
				c-0.5-0.8-1.2-1.5-1.9-1.8c-0.8-0.4-1.6-0.6-2.5-0.6c-1,0-1.9,0.2-2.7,0.7c-0.8,0.4-1.5,1.1-1.9,1.9s-0.7,1.8-0.7,3
				c0,1.1,0.2,2.1,0.7,3s1.1,1.5,1.9,1.9c0.8,0.4,1.7,0.7,2.7,0.7c0.9,0,1.7-0.2,2.5-0.6c0.8-0.4,1.4-1,1.9-1.8l3.2,1.8
				c-0.7,1.3-1.7,2.3-3,3.1C170.6,271.3,169.1,271.6,167.4,271.6z"/>
		</g>
		<g class="st1">
			<path class="st0" d="M180.4,250.9c-0.8,0-1.4-0.2-1.9-0.7c-0.5-0.5-0.7-1.1-0.7-1.7c0-0.7,0.2-1.3,0.7-1.8
				c0.5-0.5,1.1-0.7,1.9-0.7c0.8,0,1.4,0.2,1.9,0.7c0.5,0.5,0.7,1,0.7,1.7c0,0.7-0.2,1.3-0.7,1.8
				C181.8,250.6,181.2,250.9,180.4,250.9z M178.3,271.4v-17.6h4.1v17.6H178.3z"/>
			<path class="st0" d="M196.1,271.6c-2,0-3.7-0.4-5.1-1.2c-1.5-0.8-2.6-1.9-3.4-3.2c-0.8-1.4-1.2-2.9-1.2-4.7
				c0-1.8,0.4-3.3,1.2-4.7c0.8-1.4,1.9-2.4,3.2-3.2c1.4-0.8,2.9-1.2,4.7-1.2c1.7,0,3.2,0.4,4.6,1.1c1.3,0.7,2.4,1.8,3.2,3.2
				c0.8,1.4,1.2,3,1.2,4.8c0,0.2,0,0.4,0,0.6c0,0.2,0,0.4,0,0.6h-14.7v-2.7h12.5l-1.6,0.9c0-1-0.2-1.9-0.6-2.7
				c-0.4-0.8-1-1.4-1.8-1.8c-0.8-0.4-1.6-0.7-2.6-0.7c-1,0-1.9,0.2-2.7,0.7c-0.8,0.4-1.4,1.1-1.8,1.8c-0.4,0.8-0.6,1.7-0.6,2.8v0.7
				c0,1.1,0.2,2,0.7,2.8c0.5,0.8,1.2,1.4,2,1.9s1.9,0.7,3,0.7c1,0,1.9-0.2,2.7-0.5c0.8-0.3,1.5-0.8,2.1-1.5l2.2,2.5
				c-0.8,0.9-1.8,1.6-3,2.1C199,271.4,197.7,271.6,196.1,271.6z"/>
			<path class="st0" d="M208.4,271.4v-17.6h3.9v4.9l-0.5-1.4c0.5-1.2,1.4-2.1,2.5-2.7c1.1-0.6,2.5-0.9,4.2-0.9v3.9
				c-0.2,0-0.3-0.1-0.5-0.1c-0.2,0-0.3,0-0.5,0c-1.6,0-2.8,0.5-3.7,1.4c-0.9,0.9-1.4,2.3-1.4,4.1v8.5H208.4z"/>
			<path class="st0" d="M231.7,271.4v-23.1h10.8c2.8,0,4.9,0.5,6.3,1.6s2.2,2.5,2.2,4.4c0,1.2-0.3,2.3-0.9,3.2
				c-0.6,0.9-1.3,1.5-2.3,2c-1,0.5-2,0.7-3.1,0.7l0.6-1.2c1.3,0,2.5,0.2,3.5,0.7s1.9,1.2,2.5,2.1c0.6,0.9,0.9,2,0.9,3.4
				c0,2-0.8,3.5-2.3,4.6c-1.5,1.1-3.8,1.7-6.8,1.7H231.7z M236,268h6.9c1.6,0,2.8-0.3,3.7-0.8c0.9-0.5,1.3-1.4,1.3-2.5
				c0-1.1-0.4-2-1.3-2.5c-0.9-0.5-2.1-0.8-3.7-0.8h-7.3V258h6.4c1.5,0,2.6-0.3,3.4-0.8c0.8-0.5,1.2-1.3,1.2-2.4
				c0-1.1-0.4-1.9-1.2-2.4c-0.8-0.5-2-0.8-3.4-0.8H236V268z"/>
			<path class="st0" d="M264.7,271.6c-2,0-3.7-0.4-5.1-1.2c-1.5-0.8-2.6-1.9-3.4-3.2c-0.8-1.4-1.2-2.9-1.2-4.7
				c0-1.8,0.4-3.3,1.2-4.7c0.8-1.4,1.9-2.4,3.2-3.2c1.4-0.8,2.9-1.2,4.7-1.2c1.7,0,3.2,0.4,4.6,1.1c1.3,0.7,2.4,1.8,3.2,3.2
				c0.8,1.4,1.2,3,1.2,4.8c0,0.2,0,0.4,0,0.6c0,0.2,0,0.4,0,0.6h-14.7v-2.7h12.5l-1.6,0.9c0-1-0.2-1.9-0.6-2.7
				c-0.4-0.8-1-1.4-1.8-1.8c-0.8-0.4-1.6-0.7-2.6-0.7c-1,0-1.9,0.2-2.7,0.7c-0.8,0.4-1.4,1.1-1.8,1.8s-0.6,1.7-0.6,2.8v0.7
				c0,1.1,0.2,2,0.7,2.8c0.5,0.8,1.2,1.4,2,1.9s1.9,0.7,3,0.7c1,0,1.9-0.2,2.7-0.5c0.8-0.3,1.5-0.8,2.1-1.5l2.2,2.5
				c-0.8,0.9-1.8,1.6-3,2.1S266.3,271.6,264.7,271.6z M261.2,251.4l4.5-4.5h4.9l-5.7,4.5H261.2z"/>
			<path class="st0" d="M287,253.6c1.4,0,2.7,0.3,3.8,0.8c1.1,0.5,2,1.4,2.6,2.5c0.6,1.1,1,2.6,1,4.4v10.1h-4.1v-9.6
				c0-1.6-0.4-2.7-1.1-3.5c-0.7-0.8-1.8-1.2-3.1-1.2c-1,0-1.8,0.2-2.6,0.6c-0.7,0.4-1.3,1-1.7,1.8s-0.6,1.8-0.6,3v8.9H277v-17.6h3.9
				v4.8l-0.7-1.5c0.6-1.1,1.5-2,2.7-2.6C284.1,253.9,285.4,253.6,287,253.6z"/>
			<path class="st0" d="M301.6,250.9c-0.8,0-1.4-0.2-1.9-0.7c-0.5-0.5-0.7-1.1-0.7-1.7c0-0.7,0.2-1.3,0.7-1.8
				c0.5-0.5,1.1-0.7,1.9-0.7c0.8,0,1.4,0.2,1.9,0.7c0.5,0.5,0.7,1,0.7,1.7c0,0.7-0.2,1.3-0.7,1.8
				C303.1,250.6,302.4,250.9,301.6,250.9z M299.6,271.4v-17.6h4.1v17.6H299.6z"/>
			<path class="st0" d="M319.1,253.6c1.4,0,2.7,0.3,3.8,0.8c1.1,0.5,2,1.4,2.6,2.5c0.6,1.1,1,2.6,1,4.4v10.1h-4.1v-9.6
				c0-1.6-0.4-2.7-1.1-3.5c-0.7-0.8-1.8-1.2-3.1-1.2c-1,0-1.8,0.2-2.6,0.6c-0.7,0.4-1.3,1-1.7,1.8s-0.6,1.8-0.6,3v8.9h-4.1v-17.6
				h3.9v4.8l-0.7-1.5c0.6-1.1,1.5-2,2.7-2.6C316.2,253.9,317.6,253.6,319.1,253.6z"/>
		</g>
		<rect x="58.1" y="239" class="st0" width="90.9" height="3.4"/>
		<rect x="148.1" y="239" class="st2" width="90.9" height="3.4"/>
		<rect x="238.5" y="239" class="st3" width="90.9" height="3.4"/>
		<path class="st0" d="M99.1,280.5c-0.5,0.2-1,0.4-1.5,0.5c-4.8,1-9.6,1.8-14.4,2.9c-5.3,1.2-10.6,2.7-15.8,4.2
			c-4.5,1.3-9,2.7-13.5,4.1c-6.2,2-12.4,4-18.6,6.1c-3.1,1.1-6.2,2.3-9.2,3.5c-0.2,0.1-0.4,0.2-0.6,0.2c-0.3,0-0.6-0.1-0.8-0.2
			c0.1-0.2,0.2-0.5,0.4-0.7c3.9-2.4,7.8-4.7,11.6-7.1c0.8-0.5,1.6-1.1,2.3-1.9c0.4-0.5,0.7-1.1,0.8-1.7c0-3.8-0.1-7.7-0.3-11.5
			c-0.2-4.5-0.5-9.1-0.8-13.6c-0.1-1.8-0.3-3.6-0.4-5.3s-0.2-3.8-0.3-5.7c-0.2-4.6-0.3-9.3-0.5-13.9c-0.2-5.4-0.5-10.7-0.7-16.1
			c-0.2-8.8-0.2-17.6-0.2-26.5c0-3.5,0.4-7.1,0.3-10.6c-0.1-4.1-0.3-8.2-0.8-12.3c-0.5-5.1-1.4-10.2-2.4-15.3
			c-1.1-5-2.7-9.8-4.6-14.5c-1.7-4.3-3.9-8.3-6.5-12.1c-2.3-3.3-5-6.3-7.7-9.4c-2.9-3.5-6-6.8-9-10.3c-1.6-1.7-3-3.6-4.2-5.6
			c-1.6-2.8-1.8-6.1-1.6-9.3c0.5-8,3.6-15.1,7.2-22c1.9-3.6,3.7-7.3,5.9-10.8c2.1-3.3,4.5-6.4,7.1-9.3C25,51.1,30.7,46.8,37,43.5
			c1.1-0.5,2.2-0.9,3.3-1.2c3.3-1.2,6.6-2.2,9.8-3.7c2.8-1.4,5.6-2.9,8.2-4.6c3.6-2.3,6.8-5.2,9.4-8.5c0.6-0.9,1.2-1.7,1.8-2.7
			l0.7-1l0.4,0.1c0.1,0.5,0.1,1,0,1.5c-1.2,5-3.5,9.7-6.8,13.7c-2.2,2.7-4.8,5.1-7.7,7c-3.4,2.2-6.9,4.2-10.3,6.3
			c-3.1,1.8-6.1,3.8-8.9,6.1c-2.3,2.1-4.2,4.5-5.8,7.1c-3.3,5.2-6.4,10.6-9.5,16c-2,3.6-4,7.1-5.8,10.8c-2.1,4.4-2.4,9,0.4,13.2
			c2.1,3,4.5,5.9,7,8.7c4.1,4.7,8.4,9.1,12.4,13.8c2,2.5,3.4,5.3,4.3,8.3c1.1,3.5,2.7,6.8,3.9,10.2c0.7,2.1,1.2,4.3,1.7,6.5
			s1.1,4.6,1.6,7s0.9,4.8,1.2,7.2c0.3,1.9,0.4,3.9,0.5,5.8c0.3,4.3,0.7,8.6,0.8,12.9c0.2,6.8,0.2,13.7,0.2,20.5
			c0,3.2-0.1,6.4-0.2,9.6c-0.2,2.7-0.5,5.3-0.8,8c-0.2,2-0.2,3.9-0.3,5.9c-0.4,5.1-0.9,10.3-1.4,15.4c-0.3,2.9-0.6,5.9-0.9,8.8
			c-0.4,3.4-0.9,6.9-1.4,10.3c-0.8,5.5-1.6,10.9-2.3,16.4c-0.5,3.4-0.9,6.7-1.3,10.1c-0.2,1.3,0.3,1.6,1.5,1.2c3-1.1,6-2.2,9-3.2
			c2.3-0.8,4.6-1.4,6.9-1.9c4-0.9,7.9-1.9,11.9-2.5c5.7-0.8,11.4-1.4,17.1-1.9c3.6-0.3,7.1-0.3,10.7-0.5c0.3,0,0.5,0,0.8,0V280.5z"
			/>
		<path class="st4" d="M127.1,65.3c-0.5-0.1-1-0.2-1.5-0.3c-0.6-0.4-1.2-0.8-1.8-1.2c-1.3-0.8-2.6-1.6-3.8-2.5
			c-2.3-1.8-4.6-3.6-6.8-5.4c-2.8-2.4-5.6-4.9-8.3-7.4c-1.3-1.2-2.7-2.3-3.9-3.5c-2.3-2.4-4.5-4.9-6.6-7.5c-1.8-2.2-3.6-4.5-5.3-6.8
			c-1.3-1.8-2.4-3.7-3.6-5.6c-1-1.6-1.7-3.5-2.8-5c-2.2-3.1-3-6.7-4.7-10c-1-2-1.2-4.4-1.7-6.6c-0.2-0.9-0.4-1.8-0.6-2.7
			c0-0.3,0.1-0.6,0.2-0.9c0.3,0,0.6,0.1,0.9,0.2c2,1.6,3.7,3.5,5,5.8c0,0.1,0.1,0.2,0.2,0.3c1.5,1.9,3.1,3.7,4.6,5.6
			c1.1,1.4,2.2,2.8,3.2,4.2c1,1.4,2,2.5,3,3.8c2.4,3.1,4.6,6.3,7.2,9.2c1.4,1.5,2.2,3.5,3.9,4.8c1.3,1,2,2.6,3,3.9
			c0.8,1,1.5,2.1,2.4,3c1.4,1.6,2.9,3,3.7,5c0.1,0.1,0.1,0.2,0.2,0.3c2,2.5,4.1,5,6.1,7.5c2.2,2.8,4.3,5.5,6.5,8.3
			c0.6,0.9,1.2,1.8,1.7,2.8L127.1,65.3z"/>
		<path class="st5" d="M111.6,146.5c-1.9-0.3-3.8-0.5-5.7-0.8c-1.6-0.2-1.8-1.1-0.9-3.2c0.7-1.8,1.6-3.5,2.3-5.4
			c2.7-7.6,6.1-14.7,9.1-22.1c2.7-6.7,6.1-12.6,9.4-18.5c1.6-2.8,2.9-5.7,3.9-8.7c1.5-4.4,0-7.8-1.2-11.2c-0.7-1.9-1.4-3.6-2.1-5.5
			c-0.1-0.5-0.1-1,0-1.4c0.3-0.3,0.8-0.5,1-0.3c2.1,1.9,4.2,3.8,6.1,6c1.2,1.3,2.1,2.8,2.8,4.5c0.6,1.8,1,3.7,1.2,5.6
			c0.4,4.4-0.8,8.6-2.4,12.5c-1,2.3-2.1,4.5-3.2,6.7c-0.7,1.4-1.3,2.9-2,4.3c-2.8,6-5.1,12.3-6.8,18.7c-1.6,5.5-2.7,11.2-3.1,16.9
			c-0.1,1.7-1.2,2.9-2.4,2.8C115.5,147.1,113.6,146.8,111.6,146.5L111.6,146.5z"/>
		<path class="st0" d="M136.7,190.3l-2.7-1.1l-5.1,0.3l7.1,3l0.7-1.8C136.7,190.5,136.7,190.4,136.7,190.3z M127.4,191.6
			c-0.1-0.1-0.2-0.1-0.3-0.2l-2.3-2c-0.5-0.5-0.6-1.3-0.1-1.8c0.2-0.2,0.5-0.4,0.8-0.4l8.6-0.5c0.2,0,0.4,0,0.5,0.1l2,0.8
			c-0.3-5.1-1.5-10.2-3.7-14.8l-7.1-3.4l-9.3,14.9v0.1l-2.9,4.6c0,0.1-0.1,0.1-0.1,0.1l-5.2,7.2l0.4,0.4h0.1h27.6
			c0.1-0.5,0.1-0.9,0.1-1.4l-0.3-0.1L127.4,191.6z M127.9,165.2l-0.8,1.9v0.1l0.5,0.3l3.2,1.5C129.9,167.7,129,166.4,127.9,165.2
			L127.9,165.2z M89.8,209.3c-0.8-0.4-1.6-0.9-2.4-1.4l-4.4-0.8L73,208l-5.8,1.1l-2.8,2.5c3.5,5.3,8.4,9.6,14.1,12.5l0.6,0.3
			l0.6-0.6L90,212.4l1.8-2.3C91.1,209.9,90.4,209.6,89.8,209.3z M118.7,205.6c-1.7,1.4-3.5,2.7-5.5,3.6l5.2,0.2l1.5-3.2L118.7,205.6
			z M122.7,207.5l-0.5-0.2l-1.8,4c-0.2,0.5-0.7,0.7-1.2,0.7l-13.9-0.5c-1.3,0.2-2.6,0.2-3.9,0.2c-2.4,0-4.7-0.2-7-0.8l-2.5,3.1
			l-10.4,11.4c6.1,2.5,12.7,3.7,19.3,3.6c6.1,0.1,12.1-0.9,17.8-3.1c4.9-1.9,9.3-5,12.9-8.9L122.7,207.5z M80.1,196.8h20.5l-2.4-3.2
			l-14.8-9.4h-3.6c0.1-0.7,0.2-1.3,0.4-2L63.5,171c-3.5,6-5.2,12.8-5.1,19.7c-0.1,6.5,1.5,13,4.6,18.7l2.8-2.4
			c0.2-0.2,0.4-0.3,0.6-0.3l6.2-1.2h0.1l10.3-0.9c0.1,0,0.2,0,0.3,0l0.6,0.1c-0.6-0.8-1.2-1.6-1.7-2.4
			C81.2,200.6,80.5,198.7,80.1,196.8L80.1,196.8z M110.3,184.2l2,2.1l1.3-2.1H110.3z M89.5,185.2l10.2,6.5c0.1,0.1,0.2,0.2,0.3,0.3
			l3.3,4.3l2.5-0.7l0.2-0.6c0-0.1,0.1-0.1,0.1-0.2l4.1-5.7L89.5,185.2z M106.8,184.2h-9l11,2.1L106.8,184.2z M94.4,155.8l-3.8-1.8
			c-0.1,0-0.2-0.1-0.3-0.2l-0.8-0.7c-4.1,0.7-8.1,2.1-11.8,4.1c-5.2,2.8-9.6,6.8-12.9,11.6L81,179.7c0.2-0.6,0.5-1.2,0.8-1.8
			c1.5-2.8,3.8-5.2,6.6-6.8c1.1-0.6,2.2-1.1,3.4-1.5l1.2-1.5l0,0l5-7.2l1.2-2L94.4,155.8z M98,152.4c-1.5,0-3,0.1-4.5,0.2l2,0.9
			l0.2,0.1l4.6,3.1l1.7-4.1C100.7,152.5,99.3,152.4,98,152.4z M99.2,163.6l-3.1,4.5l4.1,0.8c1.3,0.1,2.5,0.3,3.7,0.7l1.7,0.3
			L99.2,163.6z M117.7,157.1c-4.1-2.2-8.6-3.6-13.2-4.2l-2.5,6.2l0,0l0,0v0.1l-0.6,1.1l-0.7,1.1l9.7,9.5c0.4,0.4,0.5,1,0.2,1.5
			c-0.1,0.2-0.2,0.3-0.4,0.4c1.7,1.4,3.1,3.1,4.1,5c0.5,1,1,2,1.3,3l8.6-13.8l1.9-3.9C123.6,160.7,120.8,158.6,117.7,157.1
			L117.7,157.1z"/>
	</g>
</g>
</svg>
